<svg width="342" height="342" viewBox="0 0 342 342" fill="none" xmlns="http://www.w3.org/2000/svg">
<path d="M149.151 334.685C148.036 333.727 145.538 330.683 147.46 327.145C148.171 325.851 149.667 325.208 151.028 324.639C152.426 324.168 153.743 323.484 154.933 322.612C157.05 320.817 157.633 317.825 159.039 315.416C160.655 312.656 163.662 310.592 166.849 310.734C170.491 310.906 173.528 313.875 174.905 317.271C176.281 320.667 176.333 324.43 176.401 328.095C176.401 330.122 176.326 332.411 174.837 333.78C173.349 335.149 171.396 335.051 169.541 334.999L149.63 334.386" fill="#B5BDC1"/>
<path d="M187.239 279.931H134.879L144.311 336.173C144.507 337.348 145.033 338.443 145.828 339.33C146.623 340.218 147.653 340.861 148.799 341.185L148.986 341.237C149.136 341.275 149.286 341.327 149.45 341.357C149.801 341.424 150.156 341.464 150.512 341.477V341.544L150.767 341.507H174.112C174.541 341.507 174.97 341.464 175.391 341.379C176.754 341.168 178.01 340.517 178.968 339.524C179.926 338.531 180.532 337.252 180.694 335.882L185.212 297.113L185.414 295.572L187.209 280.208L187.239 279.931ZM177.358 315.835H171.987L172.526 299.514H178.757L177.358 315.835ZM179.28 299.514H184.419L182.504 315.835H177.882L179.28 299.514ZM163.924 333.922L163.595 319.71H171.337L170.865 333.922H163.924ZM155.554 319.71H163.079L163.4 333.922H156.668L155.554 319.71ZM156.137 333.922H149.832C149.233 330.092 148.455 325.118 147.588 319.71H155.015L156.137 333.922ZM155.292 315.805L154.02 299.484H162.645L163.026 315.805H155.292ZM163.52 315.805L163.146 299.484H172.025L171.479 315.805H163.52ZM163.056 295.609L162.705 280.485H172.653L172.152 295.609H163.056ZM162.533 295.609H153.684L152.502 280.485H162.174L162.533 295.609ZM153.175 295.609H143.803C143.474 293.515 143.159 291.54 142.875 289.76C141.903 283.649 141.536 281.352 141.327 280.485H151.986L153.175 295.609ZM153.482 299.521L154.746 315.843H146.997C146.735 314.19 146.473 312.514 146.249 310.839C145.643 306.986 145.029 303.134 144.461 299.521H153.482ZM146.488 315.843H141.432L138.694 299.521H143.93C144.693 304.526 145.568 310.128 146.473 315.805L146.488 315.843ZM147.101 319.762C147.849 324.669 148.597 329.486 149.345 333.974H144.491L142.112 319.762H147.101ZM171.404 333.974L171.875 319.762H177.044L175.832 333.974H171.404ZM172.675 295.639L173.177 280.515H180.395L179.108 295.639H172.675ZM140.848 280.515C141.058 281.614 142.015 287.561 143.294 295.639H138.058L135.522 280.515H140.848ZM180.402 333.974H176.348L177.56 319.762H182.048L180.402 333.974ZM184.89 295.639H179.617L180.911 280.515H186.663L184.89 295.639Z" fill="#CCB183"/>
<path d="M189.79 224.332L161.538 233.136C160.6 233.419 159.59 233.322 158.723 232.868C157.856 232.413 157.201 231.637 156.9 230.705L144.715 191.6C144.433 190.663 144.529 189.652 144.984 188.785C145.438 187.918 146.215 187.263 147.146 186.962L165.061 181.382L183.387 191.353L192.221 219.695C192.503 220.632 192.407 221.643 191.952 222.51C191.498 223.377 190.721 224.031 189.79 224.332Z" fill="#FFDDA4"/>
<path d="M165.061 181.382L168.494 192.385C168.769 193.253 169.377 193.977 170.185 194.398C170.992 194.818 171.934 194.902 172.803 194.629L183.387 191.331L165.061 181.382Z" fill="#CCB183"/>
<path d="M165.981 192.692C166.026 192.834 163.139 193.859 159.526 194.981C155.913 196.103 152.958 196.903 152.913 196.761C152.868 196.619 155.763 195.594 159.369 194.472C162.974 193.35 165.944 192.535 165.981 192.692Z" fill="black"/>
<path d="M176.363 196.267C176.408 196.41 171.628 198.025 165.689 199.873C159.75 201.72 154.896 203.112 154.851 202.97C154.806 202.827 159.585 201.212 165.532 199.364C171.479 197.517 176.318 196.125 176.363 196.267Z" fill="black"/>
<path d="M179.924 200.86C179.968 201.002 174.755 202.753 168.277 204.772C161.8 206.792 156.519 208.31 156.474 208.168C156.429 208.026 161.642 206.276 168.12 204.256C174.598 202.237 179.879 200.718 179.924 200.86Z" fill="black"/>
<path d="M181.472 205.76C181.517 205.902 176.303 207.652 169.826 209.672C163.348 211.691 158.067 213.21 158.022 213.068C157.977 212.925 163.191 211.175 169.669 209.156C176.146 207.136 181.405 205.617 181.472 205.76Z" fill="black"/>
<path d="M182.968 210.644C183.013 210.786 177.799 212.536 171.329 214.556C164.859 216.576 159.563 218.094 159.518 217.952C159.473 217.81 164.687 216.067 171.165 214.047C177.642 212.028 182.968 210.524 182.968 210.644Z" fill="black"/>
<path d="M184.501 215.566C184.546 215.708 179.333 217.458 172.863 219.478C166.392 221.498 161.104 223.016 161.059 222.874C161.014 222.732 166.228 220.981 172.698 218.962C179.168 216.942 184.464 215.424 184.501 215.566Z" fill="black"/>
<path d="M309.664 71.7479L282.085 61.044C281.177 60.6788 280.449 59.9722 280.056 59.0758C279.663 58.1794 279.637 57.1646 279.984 56.2493L294.831 18.1013C295.007 17.6482 295.27 17.2341 295.606 16.8827C295.941 16.5313 296.343 16.2496 296.787 16.0537C297.232 15.8578 297.711 15.7515 298.197 15.7409C298.683 15.7303 299.166 15.8156 299.619 15.992L317.114 22.7988L325.223 41.97L314.459 69.646C314.094 70.5541 313.387 71.2828 312.491 71.6757C311.594 72.0687 310.58 72.0946 309.664 71.7479Z" fill="#FFDDA4"/>
<path d="M317.114 22.7539L312.933 33.4952C312.764 33.9182 312.681 34.3707 312.688 34.8262C312.695 35.2817 312.793 35.7313 312.975 36.1488C313.157 36.5663 313.421 36.9434 313.75 37.2583C314.079 37.5732 314.468 37.8196 314.893 37.9832L325.223 41.9999L317.114 22.7539Z" fill="#CCB183"/>
<path d="M310.786 32.1563C310.734 32.2984 307.839 31.2961 304.316 29.9123C300.793 28.5285 297.98 27.3167 298.033 27.1821C298.085 27.0474 300.987 28.0423 304.511 29.4261C308.034 30.8099 310.876 32.0216 310.786 32.1563Z" fill="black"/>
<path d="M316.666 41.439C316.613 41.5736 311.871 39.8607 306.074 37.6017C300.277 35.3428 295.602 33.4054 295.669 33.2708C295.736 33.1362 300.464 34.864 306.268 37.108C312.073 39.352 316.718 41.2968 316.666 41.439Z" fill="black"/>
<path d="M316.583 47.2434C316.531 47.3856 311.347 45.5006 305.042 43.0397C298.736 40.5787 293.672 38.4769 293.672 38.3422C293.672 38.2076 298.908 40.0851 305.214 42.546C311.519 45.0069 316.636 47.1088 316.583 47.2434Z" fill="black"/>
<path d="M314.721 52.068C314.668 52.2027 309.485 50.3252 303.179 47.8643C296.873 45.4033 291.78 43.3015 291.832 43.1593C291.884 43.0172 297.068 44.9097 303.374 47.3631C309.679 49.8165 314.781 51.8885 314.721 52.068Z" fill="black"/>
<path d="M312.866 56.8178C312.806 56.9525 307.63 55.075 301.324 52.6141C295.018 50.1531 289.917 48.0513 289.969 47.9091C290.022 47.767 295.205 49.652 301.519 52.1129C307.832 54.5738 312.918 56.6757 312.866 56.8178Z" fill="black"/>
<path d="M311.003 61.5975C310.943 61.7397 305.767 59.8547 299.461 57.4013C293.156 54.9478 288.054 52.816 288.114 52.6963C288.174 52.5767 293.35 54.4392 299.656 56.9001C305.962 59.361 311.055 61.4629 311.003 61.5975Z" fill="black"/>
<path d="M50.572 180.948C51.1456 181.044 51.6597 181.359 52.0057 181.827C52.3518 182.294 52.5028 182.878 52.427 183.454C52.3148 184.202 52.2026 184.95 52.1577 185.309L49.6145 201.997C49.5501 202.376 49.3425 202.715 49.0348 202.945C48.727 203.175 48.3427 203.277 47.9615 203.231L9.76857 197.419C9.40545 197.354 9.07935 197.157 8.85292 196.865C8.62648 196.574 8.5157 196.209 8.54185 195.841L10.4941 174.216C10.5155 174.02 10.5755 173.83 10.6707 173.657C10.7659 173.484 10.8944 173.332 11.0487 173.209C11.2031 173.086 11.3803 172.994 11.5701 172.94C11.7599 172.886 11.9586 172.87 12.1547 172.892L20.7941 174.209C21.6084 174.339 22.3519 174.749 22.896 175.368L24.4443 177.156L50.572 180.948Z" fill="#CCB183"/>
<path d="M53.0726 183.632L11.3357 177.282L7.50402 202.469L49.2409 208.819L53.0726 183.632Z" fill="#F5F5F5"/>
<path d="M7.67419 179.041L6.86635 205.789C6.85983 206.018 6.93668 206.241 7.08256 206.417C7.22844 206.594 7.4334 206.711 7.65923 206.747L48.328 212.933C48.5651 212.966 48.8059 212.907 49.0008 212.768C49.1956 212.629 49.3296 212.42 49.3752 212.185L55.419 186.229C55.4485 186.105 55.4524 185.976 55.4303 185.85C55.4083 185.724 55.3608 185.603 55.2909 185.496C55.2209 185.389 55.1298 185.298 55.0233 185.227C54.9167 185.156 54.7969 185.108 54.671 185.085L8.76627 178.106C8.6312 178.084 8.49303 178.092 8.36135 178.129C8.22966 178.166 8.10762 178.232 8.00371 178.321C7.89979 178.41 7.81649 178.52 7.75958 178.645C7.70268 178.769 7.67354 178.904 7.67419 179.041Z" fill="#FFDDA4"/>
<path d="M105.4 183.163C97.1724 187.441 90.8219 194.794 86.2741 202.902C81.7262 211.011 78.7941 219.889 75.8918 228.723L73.3486 274.224C82.9455 257.895 90.6574 238.694 92.7368 219.867L86.3489 219.291C90.6349 218.64 94.2253 215.551 96.5142 211.856C98.8031 208.161 99.9774 203.934 101.129 199.753L93.3352 200.92C99.491 196.773 103.812 190.413 105.4 183.163Z" fill="#455A64"/>
<g opacity="0.3">
<path d="M105.4 183.163C97.1724 187.441 90.8219 194.794 86.2741 202.902C81.7262 211.011 78.7941 219.889 75.8918 228.723L73.3486 274.224C82.9455 257.895 90.6574 238.694 92.7368 219.867L86.3489 219.291C90.6349 218.64 94.2253 215.551 96.5142 211.856C98.8031 208.161 99.9774 203.934 101.129 199.753L93.3352 200.92C99.491 196.773 103.812 190.413 105.4 183.163Z" fill="black"/>
</g>
<path d="M71.9274 284.905C71.9274 284.905 51.0881 259.967 51.32 236.158H59.7425C59.7425 236.158 50.572 230.144 51.32 226.778C52.068 223.412 52.2924 210.644 52.2924 210.644L59.9893 212.574C59.9893 212.574 54.2148 209.687 53.4967 205.094C52.7786 200.501 55.1797 179.363 55.1797 179.363C55.1797 179.363 64.5596 189.221 67.4469 199.319C70.3342 209.417 77.9189 221.206 75.6749 251.993C73.4309 282.781 71.9274 284.905 71.9274 284.905Z" fill="#455A64"/>
<path d="M82.4892 287.262C82.4892 287.262 105.071 272.219 110.083 253.026L103.314 251.186C103.314 251.186 111.983 248.351 112.14 245.486C112.297 242.621 114.9 232.336 114.9 232.336L108.295 232.201C108.295 232.201 113.531 231.139 115.147 227.624C116.763 224.108 119.388 206.552 119.388 206.552C119.388 206.552 109.664 212.432 105.176 219.919C100.688 227.407 91.9813 235.223 87.0296 260.461C82.0778 285.698 82.4892 287.262 82.4892 287.262Z" fill="#455A64"/>
<path d="M60.8721 201.144C60.905 201.227 60.93 201.312 60.9469 201.399L61.1264 202.147L61.7846 205.139C62.0764 206.418 62.413 207.996 62.7795 209.829C63.146 211.661 63.5798 213.748 63.9987 216.067C64.8963 220.69 65.8388 226.225 66.8037 232.373C67.7686 238.522 68.6812 245.314 69.519 252.45C70.3567 259.586 70.9701 266.407 71.4563 272.646C71.9425 278.884 72.2641 284.457 72.4511 289.162C72.5633 291.518 72.6232 293.65 72.6755 295.512C72.7279 297.375 72.7728 298.998 72.7877 300.314C72.8027 301.631 72.7877 302.626 72.7877 303.344V304.129C72.7992 304.218 72.7992 304.309 72.7877 304.398C72.7781 304.311 72.7781 304.224 72.7877 304.137C72.7877 303.935 72.7877 303.673 72.7877 303.344C72.7877 302.596 72.7279 301.616 72.683 300.314C72.6381 299.013 72.5932 297.39 72.5035 295.52C72.4137 293.65 72.3539 291.525 72.2192 289.177C71.9948 284.472 71.6208 278.884 71.1421 272.676C70.6634 266.467 69.9902 259.66 69.1749 252.525C68.3596 245.389 67.4171 238.612 66.497 232.456C65.577 226.3 64.6345 220.779 63.7743 216.149C63.3704 213.83 62.959 211.744 62.6074 209.904C62.2559 208.063 61.9492 206.485 61.6874 205.199C61.4256 203.912 61.2311 202.955 61.0965 202.207C61.0366 201.885 60.9843 201.623 60.9544 201.459C60.9156 201.357 60.888 201.252 60.8721 201.144Z" fill="#263238"/>
<path d="M69.0402 300.18C69.0402 300.18 49.9662 278.547 44.0495 265.465L48.5375 263.558C45.2987 264.089 41.9775 262.697 39.4643 260.566C36.951 258.434 35.1109 255.674 33.3007 252.928L39.1875 251.934C33.7786 250.388 29.1717 246.82 26.3219 241.97C33.2708 243.115 39.5615 246.93 44.7377 251.694C48.8522 255.646 52.5885 259.973 55.8978 264.62C57.5635 266.854 59.0137 269.24 60.2287 271.748C63.4152 278.39 69.0477 292.236 69.0402 300.18Z" fill="#455A64"/>
<path d="M110.412 219.149C110.391 219.225 110.361 219.298 110.322 219.366L110.031 219.994L108.871 222.395C107.846 224.475 106.403 227.496 104.645 231.244C102.887 234.991 100.868 239.472 98.6609 244.506C96.4543 249.54 94.2103 255.098 91.9289 260.962C89.6475 266.826 87.613 272.519 85.8253 277.695C84.0375 282.871 82.5266 287.561 81.3373 291.51C80.1479 295.46 79.1531 298.676 78.5098 300.898L77.7618 303.456C77.6721 303.733 77.6047 303.95 77.5524 304.122C77.5 304.294 77.4776 304.346 77.4701 304.339C77.4734 304.273 77.4834 304.208 77.5 304.144C77.5449 303.972 77.5973 303.755 77.6721 303.471C77.8366 302.857 78.061 301.975 78.3527 300.898C78.9511 298.654 79.8487 295.437 81.068 291.473C82.2872 287.508 83.7533 282.804 85.5036 277.612C87.2539 272.421 89.3109 266.759 91.5849 260.865C93.8588 254.971 96.1851 249.405 98.3169 244.409C100.449 239.412 102.565 234.909 104.353 231.169C106.141 227.429 107.629 224.437 108.692 222.373L109.918 220.002C110.053 219.755 110.158 219.553 110.247 219.396C110.337 219.239 110.412 219.141 110.412 219.149Z" fill="#263238"/>
<path d="M70.6559 309.455C70.6081 309.327 70.5779 309.194 70.5661 309.058C70.5138 308.752 70.4539 308.37 70.3791 307.906C70.2295 306.912 69.9827 305.468 69.6311 303.703C69.2796 301.937 68.8008 299.836 68.18 297.539C67.5592 295.243 66.7438 292.745 65.7789 290.164C64.814 287.583 63.7369 285.197 62.7046 283.05C61.6724 280.904 60.6402 279.011 59.7126 277.455C58.7851 275.9 58.0371 274.658 57.4686 273.813L56.8478 272.825C56.7634 272.717 56.6976 272.596 56.6533 272.466C56.7506 272.56 56.836 272.666 56.9076 272.78C57.0946 273.035 57.319 273.341 57.5883 273.723C58.1792 274.546 58.9871 275.772 59.9296 277.321C60.872 278.869 61.9192 280.747 62.9889 282.886C64.0585 285.025 65.1207 287.441 66.108 290.029C67.0954 292.617 67.8958 295.168 68.5241 297.412C69.1524 299.656 69.5937 301.833 69.9079 303.62C70.222 305.408 70.4315 306.852 70.5287 307.854C70.5736 308.325 70.611 308.707 70.6409 309.014C70.6669 309.159 70.6719 309.308 70.6559 309.455Z" fill="#263238"/>
<path d="M95.8186 304.361H54.0802V312.873H95.8186V304.361Z" fill="#FFDDA4"/>
<path d="M58.0596 312.881L62.57 341.514H87.7926L91.9963 312.881H58.0596Z" fill="#FFDDA4"/>
<path d="M93.2604 312.881C93.2604 312.985 85.3615 313.075 75.6225 313.075C65.8836 313.075 57.9922 312.985 57.9922 312.881C57.9922 312.776 65.8836 312.686 75.6225 312.686C85.3615 312.686 93.2604 312.768 93.2604 312.881Z" fill="#263238"/>
<path d="M290.269 298.257H285.945V300.584H290.269V298.257Z" fill="#455A64"/>
<path d="M288.788 239.629H278.802V289.154H288.788V239.629Z" fill="#455A64"/>
<path d="M306.455 242.239H259.586C257.191 242.239 254.895 241.288 253.202 239.595C251.509 237.902 250.557 235.606 250.557 233.211C250.556 232.025 250.789 230.85 251.242 229.754C251.696 228.658 252.361 227.661 253.199 226.822C254.038 225.983 255.033 225.317 256.129 224.863C257.225 224.409 258.399 224.175 259.586 224.175H306.455C307.642 224.175 308.816 224.409 309.912 224.863C311.008 225.317 312.004 225.983 312.842 226.822C313.681 227.661 314.345 228.658 314.799 229.754C315.252 230.85 315.485 232.025 315.484 233.211C315.484 234.397 315.25 235.571 314.797 236.666C314.343 237.762 313.678 238.757 312.839 239.595C312.001 240.434 311.006 241.099 309.91 241.552C308.815 242.006 307.641 242.239 306.455 242.239Z" fill="#455A64"/>
<path d="M286.992 289.154H280.664V324.31H286.992V289.154Z" fill="#303F46"/>
<path d="M258.449 341.447C257.207 341.604 311.774 341.447 311.774 341.447C311.774 341.447 288.496 338.844 286.992 324.31H280.664C280.664 324.31 279.071 338.821 258.449 341.447Z" fill="#303F46"/>
<path d="M308.31 242.24C308.31 242.344 297.472 242.434 284.105 242.434C270.738 242.434 259.9 242.344 259.9 242.24C259.9 242.135 270.738 242.045 284.105 242.045C297.472 242.045 308.31 242.135 308.31 242.24Z" fill="#263238"/>
<path d="M288.78 289.184C285.429 289.443 282.063 289.443 278.712 289.184C282.066 288.925 285.434 288.925 288.788 289.184H288.78Z" fill="#263238"/>
<path d="M290.269 303.187C289.931 303.187 289.607 303.053 289.367 302.815C289.127 302.576 288.992 302.253 288.99 301.915V296.926C288.992 296.587 289.127 296.263 289.366 296.024C289.606 295.784 289.93 295.649 290.269 295.647C290.607 295.649 290.932 295.784 291.171 296.024C291.41 296.263 291.546 296.587 291.548 296.926V301.9C291.549 302.069 291.516 302.236 291.453 302.392C291.389 302.548 291.295 302.69 291.176 302.809C291.057 302.929 290.916 303.024 290.76 303.088C290.604 303.153 290.437 303.187 290.269 303.187Z" fill="#455A64"/>
<path d="M190.538 98.2196C190.538 98.2196 192.729 95.8185 193.395 95.7662C194.061 95.7138 200.875 97.7558 200.875 97.7558C201.665 97.9055 202.403 98.2588 203.014 98.7806C203.628 99.5286 210.367 106.822 210.367 106.822L202.887 113.419C202.887 113.419 194.106 111.841 193.343 110.921C192.58 110.001 191.967 108.527 192.528 108.063C192.15 107.416 191.973 106.672 192.019 105.924C192.142 105.397 192.294 104.878 192.475 104.368C192.475 104.368 191.151 103.418 191.099 102.76C191.083 102.405 190.996 102.057 190.845 101.735L190.538 101.227V98.2196Z" fill="#FFBE9D"/>
<path d="M193.597 99.6483C193.634 99.6483 193.597 99.8802 193.477 100.217C193.305 100.666 193.019 101.063 192.647 101.369C192.451 101.52 192.225 101.628 191.983 101.683C191.742 101.739 191.491 101.741 191.248 101.69C190.874 101.593 190.725 101.391 190.755 101.369C190.785 101.346 190.964 101.443 191.286 101.473C191.707 101.493 192.122 101.366 192.46 101.114C192.791 100.836 193.067 100.498 193.275 100.12C193.44 99.8203 193.552 99.6333 193.597 99.6483Z" fill="#EB996E"/>
<path d="M163.595 82.5191C162.514 82.5131 161.474 82.9354 160.703 83.6936C159.932 84.4519 159.493 85.4845 159.481 86.5657L159.129 131.678C159.123 132.759 159.546 133.799 160.304 134.57C161.062 135.34 162.095 135.78 163.176 135.792L195.766 136.046C196.848 136.052 197.887 135.63 198.658 134.871C199.429 134.113 199.869 133.081 199.88 131.999L200.097 86.865C200.101 86.3156 199.997 85.7708 199.79 85.262C199.583 84.7531 199.277 84.2901 198.891 83.8995C198.504 83.509 198.045 83.1986 197.538 82.9861C197.031 82.7735 196.488 82.6631 195.938 82.6612L163.595 82.5191Z" fill="#CCB183"/>
<path d="M181.472 96.2C181.472 96.3646 178.099 96.4693 173.932 96.4394C169.766 96.4094 166.392 96.2449 166.392 96.0803C166.392 95.9157 169.773 95.811 173.94 95.8484C178.106 95.8858 181.472 96.0579 181.472 96.2Z" fill="#CCB183"/>
<path d="M191.121 102.094C191.121 102.259 185.556 102.349 178.704 102.289C171.853 102.229 166.303 102.064 166.303 101.9C166.303 101.735 171.86 101.645 178.712 101.698C185.564 101.75 191.121 101.93 191.121 102.094Z" fill="#CCB183"/>
<path d="M193.305 108.108C193.305 108.273 187.247 108.355 179.774 108.295C172.302 108.235 166.25 108.056 166.25 107.891C166.25 107.727 172.309 107.644 179.782 107.704C187.254 107.764 193.305 107.944 193.305 108.108Z" fill="#CCB183"/>
<path d="M193.26 113.763C193.26 113.928 187.202 114.01 179.737 113.95C172.272 113.89 166.205 113.711 166.205 113.546C166.205 113.382 172.264 113.299 179.737 113.359C187.209 113.419 193.26 113.598 193.26 113.763Z" fill="#CCB183"/>
<path d="M193.216 119.388C193.216 119.553 187.157 119.635 179.692 119.575C172.227 119.515 166.161 119.336 166.161 119.171C166.161 119.007 172.219 118.924 179.692 118.984C187.164 119.044 193.216 119.253 193.216 119.388Z" fill="#CCB183"/>
<path d="M193.171 125.073C193.171 125.237 187.112 125.32 179.647 125.26C172.182 125.2 166.116 125.02 166.123 124.863C166.131 124.706 172.174 124.609 179.647 124.669C187.119 124.729 193.171 124.908 193.171 125.073Z" fill="#CCB183"/>
<path d="M162.084 81.1727C161.549 81.1687 161.018 81.2703 160.522 81.4715C160.025 81.6728 159.574 81.9697 159.193 82.3455C158.811 82.7213 158.508 83.1685 158.299 83.6616C158.091 84.1547 157.981 84.684 157.977 85.2194L157.618 130.331C157.612 131.413 158.035 132.452 158.793 133.223C159.551 133.994 160.584 134.433 161.665 134.445L194.263 134.7C194.798 134.704 195.329 134.602 195.825 134.401C196.321 134.199 196.773 133.903 197.154 133.527C197.536 133.151 197.839 132.704 198.048 132.211C198.256 131.718 198.365 131.188 198.369 130.653L198.594 85.5111C198.598 84.4034 198.162 83.3394 197.382 82.5527C196.603 81.7659 195.543 81.3207 194.435 81.3148L162.084 81.1727Z" fill="white"/>
<path d="M162.084 81.1727C162.084 81.1727 162.248 81.1727 162.555 81.1727H163.924H169.197H188.593H193.358C193.917 81.1533 194.477 81.1707 195.033 81.225C195.62 81.3061 196.184 81.5082 196.689 81.8185C197.193 82.1288 197.628 82.5406 197.965 83.0277C198.322 83.5246 198.565 84.0942 198.676 84.6957C198.757 85.2956 198.782 85.9015 198.751 86.5059C198.751 91.323 198.713 96.4693 198.691 101.877C198.669 107.285 198.646 112.97 198.616 118.864C198.616 121.804 198.616 124.804 198.579 127.84C198.579 128.588 198.579 129.336 198.579 130.137C198.636 130.935 198.492 131.735 198.16 132.463C197.809 133.201 197.254 133.822 196.56 134.254C195.867 134.686 195.065 134.911 194.248 134.902L176.004 134.752L167.335 134.677H163.131C162.432 134.689 161.733 134.664 161.037 134.602C160.331 134.494 159.665 134.203 159.107 133.757C158.557 133.328 158.119 132.772 157.832 132.136C157.546 131.499 157.418 130.803 157.461 130.107C157.461 128.783 157.461 127.481 157.499 126.202C157.499 123.637 157.544 121.146 157.566 118.722C157.611 113.905 157.656 109.425 157.693 105.326C157.783 97.15 157.858 90.5302 157.91 85.9374C157.89 85.3933 157.933 84.8487 158.037 84.3143C158.149 83.8447 158.344 83.3989 158.613 82.9978C159.033 82.3686 159.618 81.8667 160.304 81.5467C160.724 81.3548 161.175 81.2359 161.635 81.1951C161.789 81.1835 161.944 81.1835 162.099 81.1951C161.49 81.2203 160.892 81.3678 160.341 81.629C159.677 81.9501 159.113 82.4467 158.71 83.0651C158.454 83.4574 158.271 83.8935 158.172 84.3517C158.076 84.877 158.038 85.4113 158.06 85.9449C158.06 90.5376 158.007 97.1649 157.97 105.341C157.97 109.432 157.918 113.92 157.888 118.73C157.888 121.138 157.888 123.629 157.843 126.21C157.843 127.496 157.843 128.798 157.843 130.114C157.8 130.756 157.914 131.398 158.174 131.986C158.435 132.573 158.835 133.089 159.339 133.488C159.856 133.885 160.466 134.142 161.112 134.236C161.788 134.293 162.467 134.315 163.146 134.303H167.35L176.027 134.363L194.263 134.505C195.009 134.514 195.743 134.307 196.374 133.909C197.006 133.511 197.509 132.938 197.823 132.261C198.13 131.584 198.264 130.841 198.212 130.099C198.212 129.351 198.212 128.603 198.212 127.81C198.212 124.774 198.227 121.782 198.257 118.834C198.257 112.948 198.325 107.263 198.354 101.855C198.384 96.4468 198.422 91.3006 198.452 86.4835C198.479 85.8967 198.456 85.3087 198.384 84.7257C198.279 84.1717 198.057 83.6464 197.734 83.1848C197.42 82.7312 197.017 82.3471 196.548 82.0562C196.08 81.7654 195.556 81.5741 195.011 81.4943C194.487 81.427 193.926 81.4569 193.38 81.442H191.757H188.615L169.22 81.2924L163.946 81.2325H162.578L162.084 81.1727Z" fill="#263238"/>
<path d="M179.931 94.876C179.931 95.0406 176.55 95.1453 172.384 95.1154C168.217 95.0855 164.851 94.9209 164.851 94.7564C164.851 94.5918 168.225 94.4871 172.391 94.5245C176.558 94.5619 179.931 94.704 179.931 94.876Z" fill="#263238"/>
<path d="M189.61 100.748C189.61 100.912 184.053 101.002 177.201 100.942C170.349 100.882 164.792 100.718 164.792 100.553C164.792 100.389 170.349 100.299 177.208 100.351C184.068 100.404 189.61 100.583 189.61 100.748Z" fill="#263238"/>
<path d="M191.802 106.762C191.802 106.926 185.743 107.009 178.271 106.949C170.798 106.889 164.747 106.709 164.747 106.545C164.747 106.38 170.806 106.298 178.278 106.358C185.751 106.418 191.802 106.597 191.802 106.762Z" fill="#263238"/>
<path d="M191.757 112.417C191.757 112.581 185.698 112.663 178.226 112.604C170.753 112.544 164.702 112.364 164.702 112.2C164.702 112.035 170.761 111.953 178.233 112.013C185.706 112.073 191.757 112.252 191.757 112.417Z" fill="#263238"/>
<path d="M191.712 118.072C191.712 118.236 185.653 118.318 178.181 118.259C170.708 118.199 164.657 118.019 164.657 117.855C164.657 117.69 170.716 117.608 178.188 117.668C185.661 117.727 191.712 117.892 191.712 118.072Z" fill="#263238"/>
<path d="M191.667 123.726C191.667 123.891 185.609 123.973 178.136 123.913C170.664 123.854 164.612 123.674 164.612 123.517C164.612 123.36 170.671 123.263 178.143 123.322C185.616 123.382 191.667 123.562 191.667 123.726Z" fill="#263238"/>
<path d="M166.183 89.5877C165.625 89.5877 165.091 89.3662 164.697 88.972C164.303 88.5779 164.081 88.0432 164.081 87.4858V82.2498C164.081 81.8748 164.23 81.5153 164.495 81.2501C164.76 80.985 165.12 80.8361 165.495 80.8361C165.87 80.8361 166.229 80.985 166.494 81.2501C166.76 81.5153 166.908 81.8748 166.908 82.2498V85.9898C166.915 86.0305 166.913 86.0721 166.902 86.1118C166.891 86.1515 166.871 86.1883 166.845 86.2198C166.818 86.2512 166.785 86.2764 166.747 86.2937C166.71 86.311 166.669 86.32 166.628 86.32C166.587 86.32 166.546 86.311 166.509 86.2937C166.471 86.2764 166.438 86.2512 166.411 86.2198C166.385 86.1883 166.365 86.1515 166.354 86.1118C166.343 86.0721 166.341 86.0305 166.347 85.9898V82.2498C166.347 82.0236 166.258 81.8067 166.098 81.6468C165.938 81.4869 165.721 81.3971 165.495 81.3971C165.269 81.3971 165.052 81.4869 164.892 81.6468C164.732 81.8067 164.642 82.0236 164.642 82.2498V87.4858C164.642 87.8945 164.804 88.2864 165.093 88.5753C165.382 88.8643 165.774 89.0267 166.183 89.0267C166.592 89.0267 166.984 88.8643 167.273 88.5753C167.561 88.2864 167.724 87.8945 167.724 87.4858V81.4494C167.738 80.9148 167.56 80.3928 167.223 79.9775C166.886 79.5623 166.412 79.281 165.886 79.1845C165.36 79.0879 164.816 79.1824 164.354 79.451C163.891 79.7195 163.54 80.1444 163.363 80.6491V80.8959C163.352 80.9624 163.318 81.0229 163.267 81.0666C163.215 81.1102 163.15 81.1342 163.082 81.1342C163.015 81.1342 162.95 81.1102 162.898 81.0666C162.847 81.0229 162.813 80.9624 162.802 80.8959V80.5967C162.795 80.5672 162.795 80.5364 162.802 80.5069C163.021 79.8783 163.457 79.3479 164.03 79.0101C164.604 78.6722 165.279 78.5489 165.935 78.662C166.591 78.7751 167.186 79.1173 167.614 79.6277C168.041 80.1381 168.274 80.7836 168.27 81.4494V87.4858C168.27 88.0407 168.05 88.573 167.66 88.9668C167.269 89.3605 166.738 89.5837 166.183 89.5877Z" fill="#263238"/>
<path d="M205.991 103.396L202.416 101.152L193.261 96.3197C193.261 96.3197 191.443 98.0849 194.517 100.628L198.302 103.62C198.302 103.62 201.668 109.791 202.386 110.24C203.698 110.86 205.041 111.412 206.41 111.893L205.991 103.396Z" fill="#FFBE9D"/>
<path d="M206.762 112.065C206.636 112.057 206.513 112.029 206.395 111.983C206.156 111.915 205.805 111.818 205.356 111.661C204.907 111.504 204.368 111.317 203.755 111.04C203.426 110.898 203.107 110.735 202.798 110.554C202.437 110.351 202.121 110.076 201.87 109.746C200.723 108.141 199.691 106.456 198.781 104.705L198.362 103.957C198.224 103.721 198.041 103.515 197.823 103.351C197.397 102.977 196.918 102.603 196.447 102.244C195.431 101.509 194.46 100.714 193.537 99.8652C193.033 99.397 192.706 98.7694 192.611 98.0883C192.516 97.4071 192.658 96.7138 193.014 96.1252L193.089 96.013L193.216 96.0878C196.873 98.1523 200.03 100.037 202.416 101.144C203.576 101.78 204.458 102.349 205.064 102.73L205.76 103.186C205.842 103.239 205.92 103.299 205.992 103.366C205.899 103.335 205.811 103.292 205.73 103.239L204.982 102.827C204.353 102.468 203.448 101.922 202.289 101.331C199.88 100.277 196.694 98.4141 193.036 96.3646L193.231 96.3197C192.918 96.827 192.802 97.4305 192.902 98.0176C193.001 98.6346 193.292 99.2048 193.732 99.6483C194.648 100.48 195.607 101.264 196.604 101.997C197.083 102.371 197.554 102.745 197.995 103.119C198.108 103.218 198.215 103.323 198.317 103.433C198.423 103.545 198.516 103.668 198.594 103.8C198.728 104.054 198.871 104.293 199.005 104.548C199.891 106.292 200.89 107.976 201.997 109.589C202.476 110.156 203.087 110.596 203.777 110.868C204.376 111.153 204.907 111.362 205.348 111.534L206.358 111.908C206.496 111.952 206.631 112.004 206.762 112.065Z" fill="#EB996E"/>
<path d="M305.52 85.9823C305.393 83.7383 305.116 72.9522 304.982 71.3066C304.845 69.0587 303.877 66.942 302.267 65.3674C300.636 63.8714 298.1 63.1982 296.103 64.1781C295.453 64.3434 294.858 64.6773 294.379 65.1462C293.9 65.6151 293.552 66.2024 293.373 66.8485C288.825 83.0202 289.543 100.239 287.531 116.964C293.47 117.929 301.459 117.533 307.465 117.219C307.465 103.867 306.336 100.404 305.52 85.9823Z" fill="#263238"/>
<path d="M303.015 108.789C302.981 108.647 302.966 108.501 302.97 108.355C302.97 108.026 302.932 107.607 302.91 107.113C302.872 105.984 302.828 104.435 302.768 102.551C302.685 98.6534 302.573 93.3501 302.454 87.4933C302.409 84.5611 302.364 81.7636 302.326 79.2054C302.326 77.9338 302.326 76.7221 302.282 75.5926C302.302 74.5485 302.23 73.5046 302.065 72.4734C301.972 71.7312 301.717 71.0184 301.318 70.3861C300.918 69.7538 300.384 69.2176 299.753 68.8157C299.269 68.5554 298.737 68.3927 298.19 68.337H298.295C298.404 68.3263 298.514 68.3263 298.624 68.337C299.045 68.3722 299.454 68.4918 299.828 68.6886C300.419 69.0097 300.93 69.4596 301.324 70.005C301.837 70.7282 302.185 71.5557 302.341 72.4286C302.521 73.4735 302.609 74.5323 302.603 75.5926C302.603 76.7296 302.655 77.9338 302.685 79.2054C302.738 81.7636 302.79 84.5611 302.843 87.5007C302.925 93.3501 302.992 98.6534 303.044 102.551C303.044 104.443 303.044 105.984 303.044 107.121C303.044 107.622 303.044 108.033 303.044 108.362C303.052 108.505 303.042 108.648 303.015 108.789Z" fill="#455A64"/>
<path d="M297.614 102.655C297.559 102.334 297.537 102.008 297.547 101.683C297.547 101.055 297.509 100.142 297.509 99.02C297.509 96.776 297.554 93.6792 297.636 90.2609C297.719 86.8425 297.816 83.8206 297.883 81.4943C297.883 80.4396 297.943 79.5495 297.973 78.8464C297.967 78.5182 297.992 78.1901 298.048 77.8665C298.109 78.1894 298.134 78.518 298.123 78.8464C298.123 79.4747 298.123 80.3424 298.16 81.5018C298.16 83.7458 298.115 86.8425 298.025 90.2684C297.936 93.6942 297.846 96.7012 297.786 99.0274C297.749 100.082 297.719 100.972 297.696 101.683C297.703 102.009 297.675 102.335 297.614 102.655Z" fill="#455A64"/>
<path d="M277.777 51.7389C282.265 51.2751 286.005 53.2349 289.551 55.9501C293.102 58.7464 295.712 62.5626 297.031 66.8859C298.444 71.3739 298.467 77.7693 296.859 82.2049C296.139 84.3053 294.92 86.1996 293.307 87.7253C291.695 89.2509 289.735 90.3623 287.598 90.964C281.397 92.7143 274.411 92.0037 269.534 87.7925C264.657 83.5812 262.151 76.9764 262.323 70.5361C262.379 66.0597 263.845 61.7148 266.512 58.1193C267.854 56.3444 269.546 54.8646 271.484 53.772C273.422 52.6795 275.564 51.9976 277.777 51.7688" fill="#263238"/>
<path d="M289.334 67.5441C288.795 65.8162 289.169 63.9462 289.034 62.1436C288.728 58.1717 285.766 54.8132 282.198 53.0329C278.877 51.3873 274.718 51.4247 270.499 52.4869C267.589 53.1629 264.932 54.6549 262.839 56.7879C261.503 58.2422 260.535 59.995 260.014 61.9001C259.494 63.8051 259.437 65.807 259.847 67.7386L280.171 66.1229C281.951 67.8059 283.783 69.5188 286.013 70.5361C286.653 70.8709 287.369 71.0358 288.092 71.0148C288.451 70.9943 288.797 70.8714 289.089 70.6607C289.38 70.4499 289.605 70.1601 289.738 69.8255C289.932 69.07 289.566 68.2921 289.334 67.5441Z" fill="#263238"/>
<path d="M269.736 58.052L287.067 62.929C287.883 63.0368 288.629 63.4472 289.157 64.0789C289.685 64.7107 289.956 65.5176 289.917 66.3398L287.217 104.361C287.035 106.961 285.999 109.427 284.27 111.377L282.452 113.404C278.308 118.079 270.596 117.077 268.038 111.377C267.883 111.051 267.77 110.707 267.702 110.352C267.649 110.065 267.612 109.775 267.589 109.484C267.412 107.56 267.437 105.622 267.664 103.702C267.716 100.307 267.754 98.9152 267.746 98.9452C267.739 98.9751 260.618 97.5688 259.376 88.174C258.763 83.5064 259.204 75.8918 259.758 69.6684C260.229 64.036 264.134 57.304 269.736 58.052Z" fill="#FFBE9D"/>
<path d="M261.934 76.9689C261.922 77.2815 262.033 77.5864 262.242 77.8185C262.452 78.0506 262.744 78.1913 263.056 78.2106C263.208 78.2261 263.362 78.2111 263.508 78.1667C263.654 78.1222 263.79 78.0491 263.908 77.9517C264.025 77.8542 264.122 77.7343 264.193 77.599C264.264 77.4637 264.307 77.3156 264.321 77.1634C264.333 76.8509 264.222 76.5459 264.013 76.3139C263.803 76.0818 263.511 75.941 263.199 75.9217C263.047 75.9063 262.893 75.9212 262.747 75.9657C262.601 76.0101 262.465 76.0832 262.347 76.1807C262.23 76.2781 262.132 76.398 262.062 76.5333C261.991 76.6687 261.948 76.8167 261.934 76.9689Z" fill="#263238"/>
<path d="M261.276 73.6628C261.418 73.8273 262.346 73.1766 263.64 73.214C264.934 73.2514 265.884 73.962 266.004 73.7675C266.123 73.573 265.929 73.4159 265.525 73.1018C264.976 72.7035 264.318 72.4817 263.64 72.466C262.969 72.4463 262.309 72.6401 261.755 73.0195C261.351 73.3112 261.209 73.5954 261.276 73.6628Z" fill="#263238"/>
<path d="M273.476 77.4327C273.464 77.7452 273.574 78.0502 273.784 78.2822C273.994 78.5143 274.286 78.6551 274.598 78.6744C274.75 78.6908 274.904 78.6766 275.051 78.6326C275.197 78.5885 275.334 78.5155 275.451 78.4179C275.569 78.3203 275.666 78.2 275.737 78.0641C275.807 77.9283 275.85 77.7797 275.862 77.6272C275.873 77.3151 275.761 77.0112 275.552 76.7796C275.343 76.5479 275.052 76.4066 274.74 76.3855C274.588 76.37 274.435 76.385 274.288 76.4294C274.142 76.4739 274.006 76.547 273.889 76.6444C273.771 76.7419 273.674 76.8618 273.603 76.9971C273.532 77.1324 273.489 77.2805 273.476 77.4327Z" fill="#263238"/>
<path d="M273.521 74.149C273.663 74.3135 274.591 73.6628 275.877 73.7002C277.164 73.7376 278.121 74.4482 278.241 74.2537C278.361 74.0592 278.174 73.9021 277.762 73.588C277.213 73.1888 276.556 72.967 275.877 72.9522C275.206 72.9335 274.547 73.1273 273.992 73.5057C273.588 73.7974 273.476 74.0816 273.521 74.149Z" fill="#263238"/>
<path d="M268.988 83.686C268.313 83.4551 267.612 83.3093 266.901 83.2521C266.572 83.2072 266.265 83.1399 266.213 82.908C266.192 82.5684 266.278 82.2307 266.46 81.9431C266.789 81.1502 267.133 80.32 267.5 79.4598C268.951 75.9217 270.005 73.012 269.863 72.9522C269.721 72.8923 268.427 75.7123 266.983 79.2503C266.632 80.1255 266.295 80.9557 265.981 81.7486C265.764 82.1403 265.693 82.5959 265.779 83.0352C265.822 83.1532 265.892 83.2597 265.983 83.3465C266.073 83.4334 266.183 83.4983 266.303 83.5364C266.486 83.5883 266.674 83.6184 266.864 83.6261C267.566 83.7364 268.28 83.7565 268.988 83.686Z" fill="#263238"/>
<path d="M267.717 98.9302C272.116 99.1211 276.483 98.0852 280.328 95.9382C280.328 95.9382 277.007 102.326 267.672 101.174L267.717 98.9302Z" fill="#EB996E"/>
<path d="M269.482 86.8126C269.733 86.5088 270.059 86.2749 270.427 86.1334C270.795 85.9919 271.193 85.9476 271.584 86.0048C271.868 86.0366 272.142 86.126 272.39 86.2674C272.638 86.4089 272.855 86.5995 273.027 86.8276C273.195 87.0466 273.291 87.3118 273.303 87.5874C273.315 87.863 273.243 88.1356 273.095 88.3684C272.881 88.5946 272.604 88.7518 272.3 88.8197C271.996 88.8877 271.679 88.8634 271.389 88.7499C270.786 88.5189 270.234 88.1706 269.766 87.7252C269.623 87.6157 269.502 87.4814 269.407 87.3287C269.359 87.2581 269.333 87.1747 269.333 87.0894C269.333 87.004 269.359 86.9206 269.407 86.85" fill="#EB996E"/>
<path d="M272.788 84.6808C272.578 84.6808 272.541 86.0646 271.292 87.022C270.043 87.9795 268.584 87.7701 268.562 87.987C268.539 88.2039 268.891 88.2712 269.519 88.3011C270.332 88.3229 271.126 88.0581 271.763 87.5531C272.389 87.0737 272.8 86.3668 272.908 85.5859C273.035 85.0249 272.885 84.6733 272.788 84.6808Z" fill="#263238"/>
<path d="M273.843 70.3342C273.955 70.6932 275.249 70.5586 276.76 70.783C278.271 71.0074 279.482 71.4487 279.692 71.142C279.782 70.9924 279.58 70.6558 279.094 70.3042C278.451 69.863 277.712 69.581 276.939 69.4814C276.166 69.3698 275.376 69.4415 274.635 69.6909C274.074 69.9003 273.79 70.1696 273.843 70.3342Z" fill="#263238"/>
<path d="M261.8 68.0303C262.024 68.3295 262.914 68.0303 263.984 68.0303C265.054 68.0303 265.959 68.2772 266.168 67.978C266.265 67.8284 266.131 67.5366 265.742 67.23C265.225 66.8757 264.61 66.6926 263.984 66.7064C263.356 66.6969 262.741 66.8854 262.226 67.2449C261.837 67.589 261.703 67.8882 261.8 68.0303Z" fill="#263238"/>
<path d="M292.73 65.0383C291.234 59.5704 283.754 51.7538 278.114 51.8885L268.853 56.8926C269.077 58.4438 269.715 59.9059 270.702 61.1239C271.688 62.3419 272.985 63.2706 274.456 63.8116C276.027 64.3726 277.942 64.5596 278.824 66.0107C279.707 67.4618 279.071 69.4665 279.909 70.9475C281.061 73.0045 284.479 73.0644 285.317 75.2784C285.683 76.2359 285.422 77.3579 285.803 78.3153C286.319 79.5944 289.408 81.3073 290.732 80.9632C292.056 80.6192 292.169 78.3826 292.647 77.2232C293.246 75.9318 293.38 74.4735 293.029 73.0943C292.58 70.4314 293.433 67.6488 292.73 65.0383Z" fill="#263238"/>
<path d="M286.82 81.8908C286.82 81.1951 287.696 79.5794 288.384 79.4897C290.224 79.2503 293.53 79.4897 293.44 84.1497C293.313 90.5227 286.94 89.079 286.933 88.8995C286.925 88.72 286.753 84.2993 286.82 81.8908Z" fill="#FFBE9D"/>
<path d="M288.922 86.5209C288.922 86.5209 289.034 86.6031 289.221 86.6929C289.483 86.8112 289.78 86.8246 290.052 86.7303C290.732 86.491 291.316 85.4363 291.368 84.2844C291.396 83.7393 291.301 83.195 291.091 82.6911C291.036 82.4912 290.933 82.3078 290.791 82.1566C290.649 82.0055 290.472 81.8911 290.276 81.8234C290.149 81.7851 290.012 81.7935 289.89 81.8469C289.768 81.9003 289.669 81.9954 289.61 82.1152C289.521 82.2872 289.558 82.4144 289.528 82.4293C289.498 82.4443 289.394 82.3171 289.446 82.0553C289.488 81.8982 289.58 81.7591 289.708 81.6589C289.887 81.5305 290.11 81.4768 290.329 81.5093C290.588 81.5682 290.828 81.6917 291.027 81.8682C291.225 82.0448 291.376 82.2686 291.465 82.5191C291.728 83.0769 291.849 83.691 291.817 84.3068C291.75 85.5934 291.069 86.7827 290.142 87.0295C289.97 87.0742 289.79 87.0806 289.616 87.0483C289.441 87.016 289.276 86.9457 289.132 86.8425C288.937 86.678 288.9 86.5358 288.922 86.5209Z" fill="#EB996E"/>
<path d="M297.951 73.8797C298.176 73.2737 298.298 72.6338 298.31 71.9872C298.549 68.8466 297.718 65.7174 295.953 63.1085C295.625 62.5428 295.202 62.037 294.704 61.6125C294.577 61.6873 296.574 63.9388 297.472 67.4244C298.369 70.9101 297.808 73.8722 297.951 73.8797Z" fill="#FFDDA4"/>
<path d="M270.828 55.06C270.08 57.6107 265.921 60.67 264.096 62.54C260.551 66.1678 259.892 66.6989 259.182 78.248C257.702 74.5414 257.049 70.5567 257.267 66.5717C257.573 63.2284 259.08 60.109 261.508 57.7902C262.742 56.6411 264.227 55.7959 265.845 55.3219C267.463 54.848 269.169 54.7583 270.828 55.06Z" fill="#263238"/>
<path d="M295.976 65.1655C295.617 65.2686 295.249 65.3363 294.876 65.3674C294.525 65.4198 294.091 65.4796 293.575 65.5096C293.059 65.5395 292.49 65.5993 291.847 65.5918C290.347 65.6211 288.847 65.5386 287.359 65.345C285.527 65.0975 283.718 64.6997 281.951 64.1557C280.192 63.5893 278.481 62.8839 276.835 62.0463C275.497 61.3478 274.212 60.5529 272.99 59.6677C272.459 59.3086 272.017 58.9197 271.621 58.613C271.225 58.3063 270.873 57.9996 270.634 57.7528C270.348 57.5108 270.083 57.2456 269.841 56.9599C270.157 57.1599 270.455 57.3877 270.731 57.6406C271 57.8725 271.337 58.1492 271.748 58.441C272.16 58.7327 272.608 59.1067 273.147 59.4508C274.379 60.2841 275.666 61.0338 276.999 61.6948C278.633 62.5096 280.326 63.1997 282.063 63.7592C283.812 64.2889 285.597 64.6914 287.404 64.9635C288.891 65.1697 290.39 65.2772 291.892 65.2852C292.528 65.2852 293.104 65.2852 293.612 65.2852C294.121 65.2852 294.555 65.2478 294.906 65.2104C295.261 65.1663 295.619 65.1513 295.976 65.1655Z" fill="#455A64"/>
<path d="M296.342 69.7732C296.099 69.844 295.848 69.8867 295.594 69.9003C294.907 69.9814 294.215 70.0239 293.522 70.0275C288.929 70.074 284.409 68.8773 280.44 66.5642C279.844 66.2184 279.268 65.8414 278.712 65.4348C278.494 65.3002 278.295 65.1367 278.121 64.9486C278.158 64.8962 279.049 65.5096 280.575 66.3324C284.56 68.4849 289.001 69.6591 293.53 69.7582C295.258 69.8031 296.335 69.7058 296.342 69.7732Z" fill="#455A64"/>
<path d="M297.936 70.02C298.03 70.3334 298.083 70.6578 298.093 70.9849C298.153 71.6207 298.19 72.5333 298.183 73.6628C298.165 74.9877 298.08 76.3109 297.928 77.6272C297.756 79.2445 297.433 80.8422 296.963 82.3994C296.027 85.2561 294.115 87.6922 291.563 89.281C290.792 89.7406 289.975 90.1168 289.124 90.403C288.818 90.523 288.499 90.6083 288.174 90.6573C288.46 90.4974 288.761 90.3646 289.072 90.2609C289.887 89.9231 290.673 89.5178 291.421 89.0491C292.519 88.3454 293.493 87.4631 294.3 86.4386C295.314 85.2086 296.09 83.8009 296.589 82.2872C297.054 80.7508 297.382 79.1764 297.569 77.5823C297.756 76.0863 297.853 74.7773 297.906 73.6553C297.958 72.5333 297.958 71.6207 297.906 70.9999C297.891 70.673 297.901 70.3454 297.936 70.02Z" fill="#455A64"/>
<path d="M210.39 106.822L228.88 125.522C231.311 124.961 261.149 107.128 261.149 107.128L265.869 130.077C265.869 130.077 235.328 144.139 226.928 142.434C225.552 142.157 223.3 141.978 221.879 140.19C215.132 131.521 202.416 113.329 202.416 113.329L210.39 106.822Z" fill="#FFBE9D"/>
<path d="M234.64 278.405L243.766 298.19L258.494 291.383L249.054 266.901L234.64 278.405Z" fill="#FFBE9D"/>
<path d="M242.06 296.866L247.393 307.039C247.393 307.039 233.72 321.153 235.006 324.34L267.096 308.954L258.277 288.556L242.06 296.866Z" fill="#455A64"/>
<path d="M256.631 300.89C256.984 300.846 257.341 300.928 257.638 301.123C257.936 301.317 258.154 301.611 258.254 301.952C258.322 302.304 258.252 302.668 258.058 302.968C257.864 303.269 257.562 303.484 257.215 303.568C256.839 303.634 256.452 303.553 256.134 303.343C255.816 303.133 255.589 302.81 255.502 302.439C255.47 302.065 255.583 301.694 255.819 301.403C256.055 301.111 256.394 300.922 256.766 300.875" fill="#CCB183"/>
<g opacity="0.6">
<path d="M267.096 308.924L265.757 306.388L235.493 322.096C235.493 322.096 234.363 323.405 235.006 324.34L267.096 308.924Z" fill="white"/>
</g>
<path d="M246.772 307.136C246.855 307.293 247.67 306.986 248.687 307.136C249.705 307.286 250.423 307.734 250.535 307.6C250.647 307.465 249.981 306.68 248.755 306.538C247.528 306.395 246.668 306.994 246.772 307.136Z" fill="#263238"/>
<path d="M244.072 310.128C244.11 310.3 244.917 310.24 245.77 310.652C246.623 311.063 247.109 311.684 247.266 311.602C247.423 311.519 247.094 310.584 246.032 310.106C244.97 309.627 244.005 309.978 244.072 310.128Z" fill="#263238"/>
<path d="M244.095 315.072C244.252 315.072 244.095 314.152 243.279 313.487C242.464 312.821 241.574 312.836 241.566 312.993C241.559 313.15 242.24 313.397 242.898 313.958C243.556 314.519 243.93 315.132 244.095 315.072Z" fill="#263238"/>
<path d="M245.247 303.209C245.381 303.321 245.995 302.76 246.907 302.394C247.82 302.027 248.642 301.975 248.665 301.803C248.687 301.631 247.752 301.391 246.675 301.803C245.598 302.214 245.104 303.119 245.247 303.209Z" fill="#263238"/>
<path d="M233.914 289.184L211.183 227.377C211.183 227.377 211.721 217.107 213.614 213.86C215.506 210.614 272.818 191.69 272.818 191.69C272.818 191.69 287.419 188.174 297.15 191.69C306.882 195.205 316.77 199.544 315.798 206.365C315.641 207.408 315.391 208.435 315.05 209.432C313.413 214.236 310.342 218.422 306.252 221.426C302.162 224.43 297.249 226.107 292.176 226.232L284.561 227.1L245.927 234.475C245.525 234.558 245.143 234.722 244.807 234.958C244.47 235.195 244.186 235.498 243.972 235.849C243.758 236.199 243.619 236.591 243.563 236.998C243.506 237.405 243.535 237.82 243.646 238.215L256.122 279.797C256.122 279.797 242.494 286.446 233.914 289.184Z" fill="#263238"/>
<path d="M213.838 246.413L213.299 268.195L229.516 268.592L231.857 242.456L213.838 246.413Z" fill="#FFBE9D"/>
<path d="M213.299 265.293L212.626 277.725C212.626 277.725 194.151 284.367 193.926 287.763L229.516 288.122L230.608 265.929L213.299 265.293Z" fill="#455A64"/>
<path d="M212.462 270.716C212.408 270.507 212.408 270.289 212.462 270.08C212.582 269.491 212.838 268.937 213.21 268.464C213.326 268.286 213.47 268.127 213.636 267.993C213.746 267.903 213.877 267.841 214.016 267.813C214.155 267.784 214.3 267.789 214.436 267.829C214.515 267.853 214.588 267.894 214.649 267.95C214.709 268.005 214.757 268.074 214.788 268.15C214.841 268.29 214.841 268.444 214.788 268.584C214.685 268.813 214.559 269.03 214.414 269.235C214.137 269.654 213.905 270.073 213.554 270.544C213.44 270.682 213.293 270.789 213.127 270.856C212.962 270.922 212.781 270.946 212.604 270.925C212.273 270.88 211.958 270.757 211.684 270.566C211.192 270.245 210.737 269.868 210.33 269.444C210.14 269.248 209.963 269.041 209.799 268.823C209.61 268.607 209.472 268.352 209.395 268.075C209.363 267.922 209.388 267.763 209.463 267.626C209.538 267.489 209.66 267.383 209.806 267.327C209.949 267.289 210.099 267.284 210.244 267.313C210.389 267.341 210.526 267.403 210.644 267.492C210.984 267.755 211.289 268.062 211.549 268.405C211.916 268.873 212.214 269.392 212.432 269.945C212.525 270.14 212.579 270.351 212.589 270.566C212.226 269.862 211.798 269.193 211.31 268.569C211.054 268.262 210.763 267.985 210.442 267.746C210.372 267.689 210.29 267.649 210.202 267.628C210.113 267.607 210.022 267.607 209.934 267.627C209.86 267.658 209.801 267.717 209.769 267.791C209.737 267.864 209.734 267.948 209.761 268.023C209.842 268.235 209.961 268.431 210.113 268.599C210.275 268.805 210.447 269.002 210.629 269.19C211.02 269.584 211.451 269.935 211.916 270.237C212.138 270.394 212.394 270.497 212.664 270.536C212.772 270.552 212.883 270.539 212.985 270.496C213.086 270.454 213.174 270.385 213.24 270.297C213.539 269.916 213.823 269.437 214.092 269.04C214.229 268.86 214.349 268.667 214.451 268.464C214.526 268.277 214.451 268.165 214.339 268.113C214.018 267.993 213.703 268.322 213.487 268.599C213.003 269.227 212.654 269.947 212.462 270.716Z" fill="#263238"/>
<path d="M223.652 276.296C223.988 276.412 224.271 276.643 224.452 276.948C224.633 277.254 224.699 277.614 224.639 277.964C224.542 278.308 224.319 278.602 224.013 278.787C223.707 278.971 223.343 279.033 222.994 278.959C222.627 278.852 222.314 278.609 222.121 278.279C221.928 277.95 221.868 277.558 221.954 277.186C222.088 276.835 222.354 276.551 222.695 276.393C223.036 276.236 223.425 276.217 223.779 276.341" fill="#CCB183"/>
<g opacity="0.6">
<path d="M229.494 288.122L229.426 285.235L195.332 285.983C195.332 285.983 193.739 286.656 193.904 287.778L229.494 288.122Z" fill="white"/>
</g>
<path d="M212.058 277.538C212.058 277.71 212.925 277.799 213.778 278.368C214.631 278.936 215.072 279.669 215.237 279.602C215.401 279.535 215.147 278.532 214.107 277.859C213.068 277.186 212.02 277.381 212.058 277.538Z" fill="#263238"/>
<path d="M208.303 279.041C208.265 279.213 209.013 279.512 209.597 280.253C210.18 280.993 210.345 281.749 210.517 281.749C210.689 281.749 210.809 280.762 210.068 279.856C209.328 278.951 208.31 278.877 208.303 279.041Z" fill="#263238"/>
<path d="M206.156 283.492C206.313 283.529 206.568 282.661 206.156 281.704C205.745 280.747 204.914 280.365 204.84 280.507C204.765 280.649 205.259 281.165 205.588 281.958C205.917 282.751 205.969 283.469 206.156 283.492Z" fill="#263238"/>
<path d="M212.409 273.349C212.484 273.506 213.284 273.274 214.264 273.349C215.244 273.424 216.007 273.745 216.097 273.596C216.187 273.446 215.461 272.848 214.302 272.75C213.142 272.653 212.327 273.207 212.409 273.349Z" fill="#263238"/>
<path d="M223.315 185.96C223.315 185.96 213.591 185.212 212.514 195.721C211.437 206.231 206.358 255.135 206.358 255.135L233.077 257.379L236.592 207.091L272.818 191.682C272.818 191.682 229.8 184.599 223.315 185.96Z" fill="#263238"/>
<path d="M263.363 171.748C263.363 171.748 257.469 188.279 258.591 190.119C259.713 191.959 274.882 199.551 274.882 199.551L312.828 214.122C312.828 214.122 316.725 207.921 316.725 198.414C316.725 188.907 303.531 171.748 303.531 171.748H263.363Z" fill="#263238"/>
<path d="M274.613 190.822C274.556 190.858 274.496 190.888 274.433 190.912L273.895 191.166L271.793 192.101L263.909 195.534L236.674 207.256L236.794 207.084C236.45 212.05 236.046 217.421 235.695 222.971C234.774 235.941 233.922 247.902 233.249 257.379V257.551H233.077L216.538 256.1L211.983 255.674L210.794 255.554C210.655 255.545 210.518 255.525 210.382 255.494C210.519 255.483 210.657 255.483 210.794 255.494L211.99 255.569L216.553 255.905L233.084 257.185L232.904 257.342C233.555 247.879 234.4 235.911 235.268 222.934C235.657 217.383 236.016 212.013 236.383 207.054V206.904L236.495 206.852L263.789 195.273L271.741 191.944L273.872 191.069L274.426 190.852L274.613 190.822Z" fill="#455A64"/>
<path d="M304.795 192.475C304.433 192.408 304.078 192.31 303.733 192.183L300.875 191.263C297.756 190.204 294.557 189.396 291.308 188.847C288.065 188.312 284.753 188.352 281.525 188.967C279.049 189.483 277.627 190.186 277.598 190.104C277.906 189.901 278.238 189.735 278.585 189.61C279.513 189.214 280.474 188.901 281.457 188.675C284.718 187.964 288.084 187.881 291.376 188.428C294.645 188.976 297.856 189.83 300.965 190.979C302.162 191.398 303.127 191.764 303.785 192.026C304.136 192.141 304.474 192.291 304.795 192.475Z" fill="#455A64"/>
<path d="M299.432 183.753C298.326 183.691 297.217 183.691 296.111 183.753C295.093 183.821 293.867 183.978 292.52 184.135C291.174 184.292 289.685 184.479 288.152 184.771C285.515 185.19 282.988 186.128 280.717 187.531C279.805 188.157 278.942 188.852 278.136 189.61C278.277 189.333 278.461 189.081 278.682 188.862C279.243 188.261 279.868 187.722 280.545 187.254C282.815 185.752 285.381 184.752 288.07 184.322C289.625 184.03 291.121 183.858 292.475 183.716C293.829 183.574 295.056 183.454 296.096 183.424C296.918 183.386 297.741 183.424 298.556 183.536C298.858 183.563 299.153 183.636 299.432 183.753Z" fill="#455A64"/>
<path d="M244.304 301.152C244.16 300.961 244.058 300.742 244.005 300.509C243.823 299.88 243.772 299.221 243.855 298.571C243.877 298.346 243.927 298.125 244.005 297.913C244.058 297.779 244.145 297.66 244.258 297.57C244.371 297.479 244.505 297.42 244.648 297.397C244.735 297.387 244.823 297.397 244.906 297.425C244.989 297.454 245.064 297.5 245.127 297.562C245.235 297.685 245.303 297.839 245.321 298.003C245.344 298.274 245.344 298.547 245.321 298.818C245.276 299.357 245.276 299.88 245.194 300.509C245.165 300.691 245.088 300.861 244.971 301.003C244.854 301.145 244.701 301.253 244.528 301.317C244.2 301.414 243.853 301.427 243.519 301.354C242.913 301.252 242.323 301.076 241.761 300.83C241.492 300.718 241.23 300.591 240.975 300.449C240.705 300.319 240.463 300.136 240.265 299.91C240.153 299.776 240.092 299.607 240.092 299.432C240.092 299.257 240.153 299.087 240.265 298.953C240.378 298.849 240.515 298.775 240.664 298.739C240.813 298.702 240.969 298.704 241.118 298.743C241.56 298.863 241.984 299.039 242.382 299.267C242.954 299.573 243.478 299.961 243.937 300.419C244.115 300.574 244.265 300.759 244.379 300.965C243.714 300.421 243 299.941 242.247 299.529C241.869 299.343 241.473 299.198 241.065 299.095C240.856 299.095 240.631 299.095 240.549 299.2C240.5 299.271 240.477 299.357 240.485 299.444C240.493 299.53 240.532 299.61 240.594 299.671C240.764 299.848 240.967 299.991 241.192 300.09C241.433 300.226 241.683 300.346 241.94 300.449C242.478 300.675 243.041 300.838 243.616 300.935C243.876 300.999 244.148 300.999 244.409 300.935C244.514 300.898 244.608 300.832 244.678 300.745C244.748 300.658 244.792 300.553 244.805 300.441C244.88 299.925 244.902 299.319 244.955 298.803C244.985 298.555 244.998 298.305 244.992 298.055C244.992 297.838 244.872 297.741 244.715 297.749C244.371 297.749 244.244 298.242 244.184 298.616C244.061 299.461 244.102 300.322 244.304 301.152Z" fill="#263238"/>
<path d="M262.428 106.575C259.754 107.611 257.524 109.547 256.122 112.05C253.759 116.246 254.395 118.311 255.008 120.787C255.621 123.263 256.721 128.177 256.781 127.863C256.841 127.549 262.428 106.575 262.428 106.575Z" fill="#FFBE9D"/>
<path d="M302.431 114.047C302.431 114.047 299.334 106.567 298.691 105.879L287.262 102.992L280.118 106.492C278.058 107.537 275.749 107.995 273.446 107.816C270.888 107.577 268.644 106.545 267.514 104.652L263.026 105.864C263.026 105.864 255.935 127.264 256.078 133.189C256.22 139.113 258.688 155.943 258.404 159.264C258.12 162.585 259.324 171.748 263.363 171.748H303.531C303.531 171.748 312.596 169.235 312.993 163.782C313.389 158.329 302.431 114.047 302.431 114.047Z" fill="#FFDDA4"/>
<path d="M289.633 146.525C289.436 146.746 289.21 146.937 288.96 147.094C288.306 147.563 287.61 147.968 286.88 148.306C285.794 148.81 284.64 149.155 283.454 149.33C281.994 149.541 280.508 149.478 279.071 149.143C276.475 148.48 274.114 147.11 272.249 145.187C271.685 144.619 271.163 144.012 270.686 143.369C270.498 143.141 270.339 142.889 270.215 142.621C270.275 142.576 271 143.601 272.459 144.97C274.34 146.779 276.66 148.068 279.191 148.71C281.732 149.287 284.391 149.041 286.783 148.006C288.601 147.244 289.588 146.451 289.633 146.525Z" fill="#263238"/>
<g opacity="0.3">
<path d="M270.888 143.548C271.165 146.62 272.647 149.457 275.009 151.44C276.194 152.405 277.59 153.077 279.083 153.402C280.576 153.727 282.125 153.695 283.604 153.31C285.074 152.89 286.399 152.073 287.435 150.948C288.471 149.824 289.177 148.436 289.476 146.937C287.453 147.977 285.295 148.732 283.065 149.181C280.658 149.503 278.209 149.121 276.013 148.082C273.818 147.043 271.97 145.39 270.693 143.324L271.015 143.668" fill="black"/>
</g>
<g opacity="0.3">
<path d="M304.683 150.056C300.441 141.828 295.953 133.301 288.533 127.766C290.179 133.391 291.652 138.679 293.47 144.222C293.986 145.8 294.802 147.64 296.462 147.902C297.068 147.999 297.689 147.849 298.287 147.969C299.319 148.171 300.023 149.091 300.576 149.981C301.026 150.932 301.733 151.738 302.618 152.307C303.561 152.771 304.997 152.307 305.087 151.29C305.07 150.849 304.93 150.421 304.683 150.056Z" fill="black"/>
</g>
<path d="M316.725 134.348L296.492 143.833C296.492 143.833 287.516 125.881 286.82 123.39C286.125 120.899 284.576 116.658 286.873 111.422C287.9 109.198 289.694 107.418 291.926 106.409C294.158 105.399 296.679 105.227 299.028 105.924C307.951 109.11 316.725 134.348 316.725 134.348Z" fill="#FFDDA4"/>
<path d="M258.052 134.348C257.11 134.348 246.256 140.025 246.256 140.025L239.068 119.179C248.396 114.122 258.763 106.986 264.156 105.535L259.466 121.812L258.052 134.348Z" fill="#FFDDA4"/>
<path d="M298.474 142.576C302.304 148.874 304.982 152.494 304.982 152.494L270.611 173.438L274.613 182.744L316.396 165.54C317.801 164.981 319.054 164.098 320.051 162.961C321.049 161.825 321.762 160.468 322.133 159.002C322.477 157.625 322.444 156.18 322.036 154.821L314.93 135.208L298.474 142.576Z" fill="#FFBE9D"/>
<path d="M313.344 155.696C312.03 154.879 310.654 154.164 309.23 153.557C306.829 152.652 304.705 152.629 304.742 152.494C306.326 152.381 307.916 152.609 309.405 153.161C310.894 153.713 312.247 154.577 313.374 155.696H313.344Z" fill="#EB996E"/>
<path d="M259.301 115.805C259.071 116.101 258.875 116.422 258.718 116.763C258.271 117.656 257.899 118.584 257.604 119.538C256.671 122.635 256.101 125.831 255.906 129.06C255.659 132.263 255.697 135.482 256.018 138.679C256.113 139.651 256.263 140.618 256.467 141.574C256.52 141.933 256.616 142.284 256.751 142.621C256.76 142.261 256.725 141.902 256.646 141.551C256.556 140.871 256.437 139.883 256.354 138.664C256.125 135.474 256.125 132.272 256.354 129.082C256.558 125.88 257.077 122.705 257.903 119.605C258.17 118.657 258.492 117.725 258.868 116.815C259.049 116.495 259.194 116.157 259.301 115.805Z" fill="#263238"/>
<path d="M243.938 179.804L252.532 175.705L269.257 174.373L270.626 173.431L274.628 182.736C274.628 182.736 270.245 184.831 267.948 185.018L253.878 184.591L246.526 185.339L243.938 179.804Z" fill="#FFBE9D"/>
<path d="M316.725 134.348C316.588 134.378 316.455 134.426 316.329 134.49L315.207 134.961L311.115 136.779L297.651 142.905L296.013 143.653L296.268 143.743C293.934 138.933 291.892 134.625 290.441 131.513C289.738 130.017 289.169 128.753 288.75 127.84L288.294 126.846C288.248 126.725 288.185 126.612 288.107 126.509C288.134 126.634 288.172 126.757 288.219 126.875C288.309 127.107 288.436 127.451 288.616 127.893C288.967 128.783 289.506 130.054 290.201 131.633C291.585 134.774 293.59 139.113 295.924 143.922L296.006 144.094L296.178 144.012L297.816 143.264L311.198 137.041L315.237 135.111L316.329 134.565C316.469 134.508 316.602 134.435 316.725 134.348Z" fill="#263238"/>
<path d="M298.108 105.976C298.108 106.051 297.158 106.021 295.692 106.373C293.787 106.822 292.029 107.753 290.588 109.077C289.147 110.402 288.071 112.075 287.464 113.935C286.978 115.364 286.925 116.314 286.85 116.306C286.816 116.086 286.816 115.861 286.85 115.641C286.91 115.035 287.025 114.437 287.194 113.853C287.756 111.907 288.844 110.154 290.338 108.787C291.832 107.419 293.674 106.491 295.662 106.104C296.238 105.988 296.824 105.928 297.412 105.924C297.645 105.902 297.88 105.92 298.108 105.976Z" fill="#263238"/>
<path d="M309.739 119.014C309.687 119.323 309.597 119.625 309.47 119.912C309.197 120.723 308.809 121.491 308.318 122.193L307.787 122.859L307.495 123.218L307.151 123.539L306.403 124.205L305.535 124.796C304.206 125.606 302.768 126.223 301.264 126.629C298.093 127.519 295.153 127.938 293.119 128.573C292.019 128.918 290.94 129.325 289.887 129.793C290.13 129.594 290.397 129.426 290.68 129.292C290.995 129.107 291.326 128.949 291.667 128.82L292.303 128.551L293.051 128.312C295.093 127.564 298.04 127.13 301.175 126.255C302.644 125.859 304.053 125.265 305.363 124.489L306.216 123.928L306.964 123.3C307.076 123.195 307.196 123.106 307.301 123.001L307.585 122.664L308.123 122.036C308.62 121.359 309.034 120.626 309.358 119.852C309.456 119.56 309.584 119.28 309.739 119.014Z" fill="white"/>
<path d="M307.076 114.249C306.787 114.282 306.504 114.35 306.231 114.451C305.519 114.793 304.931 115.347 304.548 116.037C304.279 116.463 304.009 116.95 303.65 117.451C303.26 117.974 302.802 118.445 302.289 118.849C301.095 119.741 299.742 120.399 298.302 120.787C296.806 121.243 295.31 121.535 294.031 121.826C292.875 122.088 291.746 122.456 290.658 122.926C289.672 123.392 288.754 123.988 287.927 124.699C287.927 124.699 287.965 124.624 288.062 124.512C288.203 124.342 288.356 124.182 288.518 124.033C289.124 123.483 289.807 123.024 290.545 122.672C291.635 122.157 292.776 121.759 293.949 121.482C295.258 121.138 296.716 120.862 298.19 120.413C299.582 120.034 300.894 119.409 302.065 118.565C302.562 118.189 303.007 117.749 303.389 117.256C303.74 116.792 304.024 116.306 304.324 115.887C304.749 115.169 305.402 114.613 306.179 114.309C306.392 114.232 306.618 114.196 306.844 114.204C306.994 114.212 307.076 114.234 307.076 114.249Z" fill="white"/>
<path d="M290.755 132.239C290.658 132.311 290.553 132.372 290.441 132.418L289.491 132.859C288.668 133.233 287.464 133.765 285.953 134.355C284.181 135.057 282.358 135.622 280.5 136.046C278.212 136.585 275.849 136.725 273.513 136.457C271.203 136.077 268.944 135.432 266.781 134.535C265.029 133.84 263.205 133.338 261.344 133.039C260.089 132.853 258.812 132.881 257.566 133.121C256.684 133.308 256.22 133.518 256.212 133.48C256.205 133.443 256.317 133.413 256.534 133.308C256.857 133.172 257.189 133.059 257.529 132.972C258.787 132.669 260.09 132.598 261.373 132.762C263.266 133.028 265.121 133.513 266.901 134.206C269.045 135.071 271.278 135.698 273.558 136.076C275.85 136.335 278.168 136.208 280.418 135.702C282.262 135.297 284.077 134.765 285.848 134.109C287.344 133.555 288.586 133.069 289.423 132.732L290.396 132.358C290.508 132.299 290.63 132.259 290.755 132.239Z" fill="white"/>
<path d="M257.551 125.372C257.551 125.372 257.633 125.29 257.813 125.163C258.08 124.987 258.366 124.842 258.666 124.729C259.78 124.31 260.983 124.186 262.159 124.37C263.891 124.635 265.555 125.234 267.058 126.135C268.847 127.246 270.712 128.231 272.638 129.082C274.617 129.784 276.712 130.099 278.809 130.01C280.526 129.945 282.235 129.74 283.918 129.396C285.362 129.119 286.529 128.843 287.329 128.648C287.741 128.533 288.161 128.451 288.586 128.401C288.19 128.563 287.782 128.696 287.366 128.798C286.574 129.03 285.422 129.344 283.978 129.658C282.282 130.045 280.555 130.28 278.817 130.361C276.672 130.473 274.527 130.16 272.504 129.441C270.559 128.585 268.682 127.585 266.886 126.449C265.425 125.555 263.809 124.943 262.121 124.646C260.986 124.443 259.817 124.52 258.718 124.871C257.948 125.118 257.574 125.372 257.551 125.372Z" fill="white"/>
<path d="M253.699 136.009C253.699 136.009 253.617 136.009 253.467 136.009C253.249 135.965 253.036 135.9 252.831 135.814C252.064 135.482 251.389 134.968 250.864 134.318C250.077 133.381 249.505 132.283 249.189 131.102C248.841 129.664 248.66 128.19 248.65 126.711C248.638 125.256 248.523 123.804 248.306 122.365C248.097 121.203 247.682 120.089 247.079 119.074C246.501 118.148 245.705 117.377 244.76 116.83C244.76 116.83 244.843 116.83 244.985 116.897C245.193 116.976 245.393 117.074 245.583 117.189C246.273 117.642 246.858 118.239 247.296 118.939C247.955 119.965 248.412 121.108 248.642 122.305C248.886 123.761 249.014 125.235 249.024 126.711C249.033 128.163 249.198 129.61 249.518 131.027C249.811 132.166 250.336 133.233 251.059 134.161C251.552 134.782 252.172 135.292 252.876 135.657C253.392 135.904 253.706 135.971 253.699 136.009Z" fill="white"/>
<path d="M255.748 130.698C255.34 129.908 254.98 129.093 254.671 128.259L252.166 122.38C251.163 120.084 250.236 118.012 249.525 116.538C248.815 115.065 248.321 114.174 248.366 114.145C248.539 114.313 248.686 114.507 248.8 114.72C249.046 115.109 249.383 115.685 249.772 116.411C250.52 117.862 251.522 119.919 252.525 122.223C253.527 124.527 254.357 126.636 254.926 128.207C255.21 128.955 255.427 129.606 255.569 130.047C255.657 130.255 255.717 130.474 255.748 130.698Z" fill="white"/>
<path d="M195.684 146.78L243.915 147.176C245.478 147.176 246.974 147.924 247.206 149.473L252.48 184.629H277.321C277.706 184.629 278.075 184.781 278.347 185.054C278.619 185.326 278.772 185.695 278.772 186.08C278.772 186.465 278.619 186.834 278.347 187.106C278.075 187.378 277.706 187.531 277.321 187.531H198.01L192.587 150.43C192.517 149.981 192.545 149.523 192.668 149.086C192.791 148.649 193.007 148.243 193.301 147.897C193.595 147.55 193.96 147.271 194.371 147.079C194.782 146.886 195.23 146.784 195.684 146.78Z" fill="#CCB183"/>
<path d="M195.684 146.78C195.432 146.769 195.181 146.795 194.936 146.855C194.197 147.028 193.544 147.461 193.096 148.074C192.765 148.526 192.559 149.058 192.498 149.615C192.487 150.28 192.547 150.944 192.677 151.597L193.373 156.496C194.435 163.864 195.961 174.448 197.861 187.546V187.673H197.995L274.965 187.718H277.037C277.416 187.753 277.797 187.681 278.136 187.508C278.392 187.366 278.604 187.157 278.752 186.905C278.9 186.652 278.978 186.365 278.978 186.072C278.978 185.78 278.9 185.492 278.752 185.24C278.604 184.987 278.392 184.779 278.136 184.636C277.801 184.468 277.425 184.395 277.052 184.427H252.532L252.719 184.591C250.819 172.002 249.046 160.259 247.483 149.719C247.435 149.016 247.116 148.359 246.593 147.887C246.067 147.445 245.426 147.163 244.745 147.071C244.099 147.008 243.45 146.986 242.801 147.004H240.908L233.645 146.952L220.742 146.877L202.371 146.78H195.684C195.684 146.78 195.826 146.78 196.118 146.78H197.382L202.296 146.847L220.667 147.049L233.57 147.176L240.833 147.251H242.726C243.36 147.236 243.994 147.258 244.626 147.318C245.246 147.403 245.83 147.663 246.309 148.066C246.761 148.501 247.029 149.093 247.057 149.719C248.635 160.251 250.385 172.002 252.293 184.591V184.756H276.977C277.285 184.723 277.596 184.777 277.874 184.913C278.135 185.06 278.336 185.294 278.44 185.575C278.544 185.856 278.545 186.165 278.443 186.446C278.341 186.726 278.142 186.959 277.882 187.104C277.6 187.246 277.283 187.303 276.969 187.269H274.972L198.003 187.314L198.145 187.441C196.215 174.388 194.637 163.774 193.545 156.407C193.268 154.574 193.021 152.936 192.797 151.522C192.656 150.879 192.591 150.221 192.602 149.562C192.652 149.024 192.843 148.507 193.156 148.066C193.585 147.456 194.22 147.021 194.944 146.84C195.189 146.808 195.436 146.788 195.684 146.78Z" fill="#263238"/>
<path d="M219.74 169.728C221.409 169.728 222.762 168.375 222.762 166.706C222.762 165.038 221.409 163.685 219.74 163.685C218.071 163.685 216.718 165.038 216.718 166.706C216.718 168.375 218.071 169.728 219.74 169.728Z" fill="white"/>
<path d="M250.557 187.194C250.483 187.194 248.949 178.256 247.124 167.208C245.299 156.16 243.878 147.184 243.945 147.176C244.012 147.169 245.546 156.115 247.371 167.163C249.196 178.211 250.625 187.187 250.557 187.194Z" fill="#263238"/>
</svg>
