<svg width="348" height="348" viewBox="0 0 348 348" fill="none" xmlns="http://www.w3.org/2000/svg">
<g clip-path="url(#clip0_774_4344)">
<path d="M251.845 151.472L238.692 206.174L307.116 222.627L320.269 167.925L251.845 151.472Z" fill="#FAFAFA"/>
<path d="M320.285 167.944L319.95 167.877L318.991 167.654L315.271 166.783L301.224 163.458L251.815 151.68L252.038 151.546C248.125 167.825 243.646 186.514 238.899 206.245L238.728 205.992L307.176 222.486L306.968 222.606C310.97 206.148 314.281 192.496 316.595 182.95C317.763 178.181 318.678 174.439 319.311 171.872C319.623 170.6 319.861 169.64 320.055 168.956C320.248 168.271 320.315 167.944 320.315 167.944C320.315 167.944 320.248 168.271 320.099 168.926C319.95 169.581 319.712 170.563 319.422 171.828C318.812 174.387 317.934 178.122 316.803 182.891C314.519 192.466 311.261 206.163 307.325 222.687L307.28 222.851L307.116 222.814L238.668 206.386L238.468 206.342L238.52 206.141C243.281 186.388 247.775 167.721 251.696 151.442L251.74 151.263L251.919 151.308L301.417 163.309L315.36 166.716L319.035 167.624L319.973 167.855L320.285 167.944Z" fill="#CCB183"/>
<path d="M253.378 155.49L241.881 203.306L305.503 218.603L317 170.788L253.378 155.49Z" fill="#455A64"/>
<path d="M241.89 203.314L271.256 178.933L280.548 200.843L292.274 193.151L305.509 218.618L241.89 203.314Z" fill="#303F46"/>
<path d="M291.738 180.012C291.499 181.001 290.973 181.898 290.224 182.589C289.476 183.279 288.54 183.732 287.534 183.891C286.529 184.049 285.499 183.906 284.574 183.479C283.65 183.052 282.873 182.361 282.341 181.492C281.81 180.624 281.548 179.618 281.588 178.6C281.629 177.583 281.97 176.6 282.569 175.777C283.168 174.954 283.997 174.326 284.953 173.974C285.908 173.622 286.946 173.561 287.936 173.799C288.594 173.956 289.215 174.242 289.762 174.639C290.31 175.037 290.774 175.539 291.127 176.116C291.48 176.693 291.716 177.334 291.821 178.003C291.926 178.671 291.897 179.354 291.738 180.012Z" fill="#303F46"/>
<path d="M58.6279 128.713L111.772 116.065C114.115 115.481 116.593 115.835 118.678 117.053C120.763 118.271 122.289 120.255 122.932 122.582L142.566 199.378L155.727 204.452C157.072 204.96 158.276 205.782 159.239 206.85C160.202 207.918 160.896 209.2 161.263 210.59L173.368 257.945C173.643 259.097 173.686 260.292 173.494 261.461C173.303 262.63 172.881 263.749 172.253 264.753C171.625 265.757 170.803 266.626 169.836 267.309C168.869 267.992 167.776 268.477 166.62 268.733L76.3128 290.25L58.6279 128.713Z" fill="#CCB183"/>
<path d="M138.355 242.753L43.971 265.252L10.2827 133.467L104.659 110.968L138.355 242.753Z" fill="white"/>
<path d="M153.882 261.554L55.0195 285.124L19.7316 147.082L118.594 123.52L153.882 261.554Z" fill="white"/>
<path d="M4.70276 141.569L44.6407 297.809L150.69 272.513C151.981 272.229 153.201 271.691 154.281 270.929C155.36 270.168 156.277 269.198 156.977 268.078C157.677 266.957 158.146 265.708 158.357 264.404C158.568 263.1 158.516 261.767 158.205 260.483L140.669 191.856C140.146 189.88 139.129 188.069 137.715 186.593C136.3 185.117 134.534 184.025 132.581 183.419L119.569 179.268L106.832 129.42C105.202 123.051 98.536 119.16 91.9516 120.737L4.70276 141.569Z" fill="#FFDDA4"/>
<path d="M169.268 259.433L162.215 261.115L150.579 215.582L157.625 213.901L169.268 259.433Z" fill="#FFDDA4"/>
<path d="M50.92 231.786L49.6329 232.181C44.5737 216.728 50.2578 199.884 63.7689 190.271C70.3885 185.615 78.2542 183.054 86.3465 182.921C94.4388 182.789 102.384 185.09 109.153 189.527L108.409 190.606C101.869 186.322 94.193 184.103 86.3762 184.235C78.5594 184.368 70.963 186.847 64.5724 191.35C51.5226 200.605 46.0319 216.869 50.92 231.786Z" fill="#CCB183"/>
<path d="M110.433 251.123C103.796 255.799 95.9042 258.366 87.7867 258.488C79.6693 258.61 71.7036 256.282 64.9296 251.808L65.6736 250.736C72.2098 255.049 79.8937 257.292 87.7237 257.174C95.5536 257.056 103.166 254.582 109.57 250.074C115.754 245.727 120.434 239.565 122.962 232.441C125.405 225.581 125.665 218.132 123.706 211.118L125.008 210.776C127.042 218.04 126.782 225.755 124.264 232.865C121.651 240.234 116.819 246.612 110.433 251.123Z" fill="#CCB183"/>
<path d="M97.9855 198.068C93.7422 196.311 89.1235 195.656 84.559 196.163C79.9944 196.67 75.6323 198.324 71.8785 200.97C68.198 203.54 65.272 207.047 63.4039 211.129C61.5358 215.211 60.7936 219.718 61.2542 224.183L97.9855 198.068Z" fill="#CCB183"/>
<path d="M75.3009 244.174C79.7087 246.39 84.6355 247.369 89.5556 247.004C94.4758 246.64 99.2047 244.947 103.238 242.106C107.193 239.348 110.271 235.511 112.105 231.052C113.938 226.593 114.45 221.701 113.58 216.959L75.3009 244.174Z" fill="#CCB183"/>
<path d="M57.6011 234.346L56.2991 232.627L50.1462 237.002L51.4482 238.721L57.6011 234.346Z" fill="#CCB183"/>
<path d="M54.0746 237.954L62.1767 248.579L64.1632 247.158L56.0685 236.541L54.0746 237.954Z" fill="#CCB183"/>
<path d="M115.269 193.344L113.967 191.633L107.806 196.008L109.116 197.719L115.269 193.344Z" fill="#CCB183"/>
<path d="M111.742 196.952L119.844 207.577L121.831 206.163L113.736 195.539L111.742 196.952Z" fill="#CCB183"/>
<path d="M68.352 241.458C67.8312 241.644 67.2955 241.458 66.7226 240.714L61.3509 233.669C60.7855 232.925 60.7557 232.367 61.0905 231.943L59.6546 230.06C58.0327 231.422 57.9657 233.252 59.4612 235.216L64.6692 242.002C66.1572 243.958 67.9949 244.442 69.8251 243.356L68.352 241.458Z" fill="#CCB183"/>
<path d="M60.354 229.554L61.7899 231.444C62.3107 231.258 62.8538 231.444 63.4193 232.188L68.791 239.234C69.3638 239.978 69.3862 240.536 69.0514 240.96L70.4947 242.842C72.1092 241.481 72.1762 239.643 70.6882 237.686L65.4802 230.901C64.0219 228.952 62.1917 228.468 60.354 229.554Z" fill="#CCB183"/>
<path d="M66.1497 225.626L64.3269 226.921L74.2816 239.97L76.097 238.676L66.1497 225.626Z" fill="#CCB183"/>
<path d="M67.2583 224.83L66.8417 225.135L68.2627 226.995L68.6868 226.698C69.3192 226.251 69.8846 226.303 70.5989 227.233L72.0869 229.19C72.8309 230.127 72.6746 230.678 72.0422 231.117L71.6256 231.414L73.0466 233.282L73.4633 232.984C75.4572 231.563 75.5688 229.733 73.9766 227.642L72.6821 225.946C71.0974 223.848 69.2522 223.416 67.2583 224.83Z" fill="#CCB183"/>
<path d="M89.7345 217.338L87.5397 218.9L88.9607 220.76L91.1555 219.205L89.7345 217.338Z" fill="#CCB183"/>
<path d="M82.6516 213.893L80.814 215.195L90.7612 228.252L92.6064 226.943L82.6516 213.893Z" fill="#CCB183"/>
<path d="M83.351 213.395L84.772 215.262L87.6662 213.201L86.2451 211.341L83.351 213.395Z" fill="#CCB183"/>
<path d="M93.2982 226.452L96.1924 224.391L94.7714 222.524L91.8772 224.585L93.2982 226.452Z" fill="#CCB183"/>
<path d="M98.5956 219.942C98.0748 220.143 97.5391 219.942 96.9588 219.198L91.5871 212.152C91.0142 211.408 90.9919 210.835 91.3416 210.411L89.928 208.536C88.2465 209.905 88.2093 211.728 89.7196 213.744L94.8904 220.53C96.3784 222.516 98.2161 223.022 100.098 221.876L98.5956 219.942Z" fill="#CCB183"/>
<path d="M90.605 208.06L92.0409 209.943C92.5543 209.772 93.0899 209.943 93.6554 210.687L94.7193 212.085L96.6016 210.746L95.6344 209.474C94.1613 207.562 92.4055 207.034 90.605 208.06Z" fill="#CCB183"/>
<path d="M99.0271 217.747C99.5851 218.491 99.6074 219.027 99.2875 219.443L100.738 221.341C102.278 219.987 102.278 218.208 100.805 216.281L99.4884 214.548L97.6061 215.887L99.0271 217.747Z" fill="#CCB183"/>
<path d="M96.1477 204.296L94.4589 205.501L104.406 218.551L106.095 217.353L96.1477 204.296Z" fill="#CCB183"/>
<path d="M109.168 212.688L107.635 210.679C106.601 209.318 105.522 208.559 104.198 208.842C104.756 207.778 104.503 206.61 103.454 205.263L102.673 204.236C101.133 202.227 99.4958 201.87 97.4647 203.336L96.8397 203.775L98.2608 205.642L98.856 205.248C99.5628 204.75 100.188 204.943 100.895 205.873L101.877 207.16C102.673 208.202 102.472 208.864 101.735 209.392L101.348 209.66L102.769 211.527L103.067 211.319C103.967 210.672 104.711 210.843 105.634 212.063L107.196 214.116C107.563 214.7 108.041 215.206 108.602 215.604L110.626 214.169C110.044 213.779 109.548 213.276 109.168 212.688Z" fill="#CCB183"/>
<path d="M103.573 199.013L101.735 200.33L111.683 213.38L113.528 212.07L103.573 199.013Z" fill="#CCB183"/>
<path d="M110.648 202.473L108.461 204.02L109.882 205.888L112.069 204.333L110.648 202.473Z" fill="#CCB183"/>
<path d="M114.22 211.572L117.114 209.519L115.693 207.659L112.799 209.712L114.22 211.572Z" fill="#CCB183"/>
<path d="M104.272 198.522L105.693 200.39L108.58 198.329L107.159 196.469L104.272 198.522Z" fill="#CCB183"/>
<path d="M85.0101 229.636C84.4596 229.889 83.8941 229.74 83.284 228.944L82.54 228.007L80.6577 229.346L81.2678 230.15C82.7558 232.121 84.5712 232.627 86.4088 231.519L85.0101 229.636Z" fill="#CCB183"/>
<path d="M78.4331 219.6C78.9539 219.399 79.4821 219.6 80.0625 220.344L80.4717 220.887L82.354 219.548L82.0415 219.139C80.5535 217.189 78.8051 216.661 76.9972 217.71L78.4331 219.6Z" fill="#CCB183"/>
<path d="M78.0686 221.78C77.518 221.036 77.4585 220.522 77.7487 220.113L76.3053 218.216C74.6908 219.57 74.6834 221.363 76.1788 223.32C79.0209 227.04 83.2989 224.808 85.3449 227.471C85.8732 228.163 85.9327 228.684 85.6648 229.093L87.1528 231.02C88.7301 229.659 88.7376 227.873 87.257 225.931C84.3926 222.196 80.122 224.458 78.0686 221.78Z" fill="#CCB183"/>
<path d="M56.2992 222.196L57.259 222.129C58.4122 222.055 59.1115 222.568 59.1934 223.617C59.2752 224.666 58.68 225.336 57.497 225.395L53.777 225.648C52.6238 225.73 51.9245 225.217 51.8501 224.16C51.7757 223.104 52.3858 222.486 53.539 222.405L54.216 222.36L54.2978 223.394L53.5538 223.446C53.0405 223.446 52.8545 223.714 52.8842 224.056C52.914 224.399 53.1223 224.614 53.6282 224.577L57.5194 224.309C58.0327 224.272 58.2038 224.041 58.1815 223.692C58.1592 223.342 57.9509 223.141 57.4375 223.178L56.4034 223.245L56.2992 222.196Z" fill="#CCB183"/>
<path d="M53.6133 219.094C52.4601 218.945 51.8872 218.283 52.0286 217.219C52.1699 216.155 52.9065 215.649 54.0522 215.79L57.7722 216.259C58.918 216.401 59.4909 217.063 59.3495 218.134C59.3331 218.37 59.2641 218.6 59.1476 218.806C59.0311 219.013 58.8701 219.19 58.6762 219.327C58.4823 219.463 58.2604 219.554 58.0268 219.593C57.7932 219.633 57.5537 219.62 57.3258 219.555L53.6133 219.094ZM57.549 218.476C58.0624 218.543 58.293 218.35 58.293 218.008C58.293 217.665 58.1814 217.42 57.6681 217.353L53.7993 216.869C53.2859 216.802 53.0553 216.996 53.0553 217.345C53.0553 217.695 53.1743 217.933 53.6802 217.993L57.549 218.476Z" fill="#CCB183"/>
<path d="M55.4436 211.587L60.3837 213.253L60.0489 214.176L53.2264 211.877L53.7026 210.575L58.1666 210.888L54.082 209.511L54.4168 208.589L61.2393 210.895L60.8524 211.944L55.4436 211.587Z" fill="#CCB183"/>
<path d="M59.4761 205.769L60.2201 204.556L61.1054 205.062L60.3614 206.282L62.9282 207.77L62.3479 208.715L56.1355 205.151L57.6681 202.659L58.5609 203.165L57.6012 204.72L59.4761 205.769Z" fill="#CCB183"/>
<path d="M59.7513 199.936L60.4953 199.095L66.0456 203.559L65.3016 204.4L59.7513 199.936Z" fill="#CCB183"/>
<path d="M63.0919 196.424L64.4534 195.293C64.619 195.126 64.8199 194.997 65.0414 194.917C65.2629 194.837 65.4995 194.807 65.734 194.83C65.9684 194.853 66.1948 194.928 66.3968 195.049C66.5987 195.17 66.771 195.335 66.9012 195.531L69.282 198.21C70.026 199.058 70.026 199.869 69.163 200.583L67.8014 201.714L63.0919 196.424ZM64.6246 196.461L67.9949 200.241L68.4785 199.839C68.7538 199.608 68.791 199.341 68.4785 198.961L66.0307 196.208C65.6959 195.829 65.4058 195.836 65.1379 196.06L64.6246 196.461Z" fill="#CCB183"/>
<path d="M71.4247 194.14L72.7862 193.396L73.2921 194.267L71.9306 195.011L72.9573 196.796L74.6685 195.881L75.1744 196.751L72.4663 198.202L68.9546 192.109L71.6627 190.621L72.1612 191.491L70.45 192.414L71.4247 194.14Z" fill="#CCB183"/>
<path d="M76.789 190.695L78.3514 195.516L77.3767 195.814L75.2191 189.155L76.5806 188.746L78.9838 192.392L77.6892 188.404L78.6564 188.114L80.814 194.772L79.7054 195.107L76.789 190.695Z" fill="#CCB183"/>
<path d="M82.2424 187.392L85.7318 187.05L85.836 188.039L84.6604 188.158L85.2928 194.11L84.162 194.222L83.5295 188.27L82.3466 188.389L82.2424 187.392Z" fill="#CCB183"/>
<path d="M89.184 187.079L90.3223 187.146L89.8982 194.11L88.7673 194.051L89.184 187.079Z" fill="#CCB183"/>
<path d="M96.051 195.174L94.935 194.921L95.0392 193.649L93.6851 193.344L93.2015 194.534L92.1823 194.311L94.935 187.764L96.5495 188.121L96.051 195.174ZM94.0423 192.459L95.1136 192.689L95.3963 189.133L94.0423 192.459Z" fill="#CCB183"/>
<path d="M101.133 189.557L102.167 190.003L99.6372 195.464L101.341 196.208L100.917 197.116L98.179 195.933L101.133 189.557Z" fill="#CCB183"/>
<path d="M118.326 220.232L117.367 220.299C116.214 220.381 115.514 219.868 115.432 218.811C115.35 217.755 115.975 217.13 117.129 217.055L120.849 216.795C122.002 216.72 122.701 217.226 122.776 218.283C122.85 219.339 122.24 219.957 121.087 220.039L120.432 220.128L120.358 219.094L121.102 219.042C121.615 219.005 121.801 218.774 121.771 218.424C121.741 218.075 121.533 217.874 121.027 217.911L117.136 218.171C116.623 218.208 116.452 218.439 116.481 218.789C116.511 219.138 116.705 219.347 117.225 219.31L118.26 219.235L118.326 220.232Z" fill="#CCB183"/>
<path d="M121.02 223.342C122.166 223.483 122.738 224.146 122.597 225.217C122.58 225.453 122.511 225.683 122.395 225.89C122.278 226.096 122.118 226.274 121.924 226.411C121.73 226.548 121.509 226.64 121.275 226.68C121.041 226.721 120.802 226.709 120.573 226.645L116.853 226.177C116.618 226.184 116.384 226.137 116.169 226.041C115.953 225.945 115.763 225.801 115.611 225.621C115.459 225.44 115.351 225.228 115.292 225C115.234 224.771 115.229 224.533 115.276 224.302C115.417 223.23 116.154 222.732 117.3 222.873L121.02 223.342ZM117.077 223.952C116.563 223.893 116.333 224.086 116.295 224.428C116.258 224.771 116.414 225.016 116.92 225.083L120.789 225.567C121.302 225.626 121.533 225.433 121.57 225.09C121.608 224.748 121.451 224.503 120.945 224.436L117.077 223.952Z" fill="#CCB183"/>
<path d="M119.182 230.849L114.242 229.183L114.577 228.253L121.399 230.544L120.923 231.839L116.459 231.526L120.544 232.903L120.209 233.825L113.386 231.526L113.773 230.462L119.182 230.849Z" fill="#CCB183"/>
<path d="M115.15 236.66L114.406 237.88L113.52 237.374L114.264 236.154L111.697 234.666L112.278 233.728L118.49 237.285L116.957 239.777L116.072 239.271L117.024 237.724L115.15 236.66Z" fill="#CCB183"/>
<path d="M114.874 242.5L114.13 243.341L108.58 238.877L109.324 238.036L114.874 242.5Z" fill="#CCB183"/>
<path d="M111.504 246.012L110.142 247.143C109.976 247.31 109.775 247.438 109.553 247.517C109.331 247.597 109.095 247.626 108.86 247.602C108.626 247.579 108.399 247.503 108.198 247.381C107.996 247.259 107.824 247.094 107.695 246.897L105.314 244.226C104.57 243.378 104.57 242.567 105.433 241.853L106.794 240.722L111.504 246.012ZM109.971 245.967L106.601 242.188L106.117 242.597C105.842 242.82 105.805 243.095 106.117 243.475L108.565 246.22C108.9 246.6 109.19 246.6 109.458 246.369L109.971 245.967Z" fill="#CCB183"/>
<path d="M103.201 248.288L101.839 249.032L101.333 248.162L102.695 247.418L101.668 245.632L99.9571 246.555L99.4512 245.684L102.159 244.196L105.671 250.297L102.963 251.785L102.464 250.915L104.176 249.992L103.201 248.288Z" fill="#CCB183"/>
<path d="M97.8367 251.733L96.2743 246.912L97.2489 246.622L99.4065 253.281L98.045 253.69L95.6419 250.037L96.9364 254.025L95.9692 254.315L93.8116 247.663L94.9202 247.321L97.8367 251.733Z" fill="#CCB183"/>
<path d="M92.3832 255.022L88.8938 255.371L88.7897 254.374L89.9652 254.263L89.3328 248.311L90.4637 248.199L91.0961 254.151L92.279 254.032L92.3832 255.022Z" fill="#CCB183"/>
<path d="M85.464 255.349L84.3257 255.289L84.7498 248.318L85.8806 248.385L85.464 255.349Z" fill="#CCB183"/>
<path d="M78.5745 247.262L79.6905 247.507L79.5864 248.787L80.9404 249.084L81.424 247.894L82.4433 248.117L79.6905 254.672L78.076 254.307L78.5745 247.262ZM80.5833 249.977L79.512 249.739L79.2293 253.295L80.5833 249.977Z" fill="#CCB183"/>
<path d="M73.493 252.864L72.4589 252.41L74.9885 246.957L73.2847 246.213L73.7088 245.297L76.4467 246.488L73.493 252.864Z" fill="#CCB183"/>
<path d="M20.4235 150.043L22.8787 159.656L20.9368 160.117L17.5442 146.844L20.2523 146.204L24.5006 153.644L22.4695 145.706L24.3964 145.244L27.7891 158.51L25.5571 159.038L20.4235 150.043Z" fill="#CCB183"/>
<path d="M26.3382 146.881C26.2332 146.61 26.1913 146.318 26.2158 146.027C26.2403 145.737 26.3305 145.456 26.4796 145.206C26.6287 144.956 26.8328 144.743 27.0765 144.583C27.3201 144.424 27.5968 144.321 27.8858 144.285C28.1635 144.188 28.4591 144.155 28.7513 144.187C29.0435 144.218 29.325 144.315 29.5755 144.468C29.826 144.622 30.0393 144.829 30.2 145.076C30.3607 145.322 30.4647 145.6 30.5046 145.892L31.2486 148.83C31.3537 149.102 31.3956 149.394 31.3711 149.684C31.3466 149.975 31.2564 150.255 31.1073 150.506C30.9581 150.756 30.754 150.969 30.5104 151.128C30.2668 151.288 29.99 151.39 29.7011 151.427C29.4234 151.522 29.1281 151.554 28.8364 151.522C28.5447 151.49 28.2637 151.393 28.0136 151.24C27.7634 151.086 27.5502 150.879 27.3892 150.634C27.2282 150.389 27.1234 150.111 27.0822 149.82L26.3382 146.881ZM28.4884 149.567C28.6446 150.177 28.9497 150.311 29.4035 150.214C29.8574 150.118 30.0582 149.835 29.902 149.232L29.1059 146.137C28.9571 145.535 28.6298 145.393 28.1908 145.497C27.7518 145.602 27.5435 145.869 27.6923 146.479L28.4884 149.567ZM31.9926 151.68L32.3274 152.989L28.1759 154.009L27.8411 152.699L31.9926 151.68Z" fill="#CCB183"/>
<path d="M91.3713 120.878L107.464 150.936L68.5379 170.377L52.4452 140.319L91.3713 120.878Z" fill="#FAFAFA"/>
<path d="M91.3714 120.886L91.1854 120.983L90.6423 121.258L88.5367 122.329L80.5834 126.332L52.4974 140.416L52.5495 140.267L68.6496 170.317L68.4785 170.265L107.412 150.847L107.367 150.988L95.7461 129.159L92.5097 123.058C92.1451 122.352 91.855 121.816 91.6615 121.444C91.4681 121.072 91.3714 120.886 91.3714 120.886C91.3714 120.886 91.4755 121.057 91.6764 121.414L92.532 122.999L95.8131 129.062L107.561 150.891L107.605 150.981L107.516 151.025L68.5901 170.481L68.4785 170.54L68.419 170.429C62.6158 159.574 57.1325 149.314 52.3411 140.371L52.2891 140.267L52.3932 140.222L80.5908 126.205L88.5516 122.262L90.6571 121.228L91.1928 120.968L91.3714 120.886Z" fill="#CCB183"/>
<path d="M68.8653 167.81L105.061 149.746L90.9919 123.468L54.8037 141.539L68.8653 167.81Z" fill="#455A64"/>
<path d="M68.8654 167.81L72.7639 145.17L86.0666 151.479L88.4549 143.362L105.061 149.746L68.8654 167.81Z" fill="#303F46"/>
<path d="M82.8451 137.604C83.0377 137.966 83.155 138.364 83.1898 138.773C83.2247 139.182 83.1763 139.594 83.0477 139.984C82.9191 140.374 82.7129 140.734 82.4416 141.042C82.1702 141.35 81.8393 141.6 81.4687 141.777C80.7152 142.154 79.8455 142.226 79.0404 141.978C78.2353 141.73 77.5568 141.181 77.146 140.446C76.9545 140.083 76.838 139.685 76.8038 139.276C76.7695 138.867 76.818 138.456 76.9465 138.066C77.075 137.676 77.2808 137.317 77.5516 137.008C77.8224 136.7 78.1526 136.449 78.5224 136.272C79.2752 135.891 80.1463 135.817 80.9524 136.066C81.7586 136.314 82.437 136.865 82.8451 137.604Z" fill="#303F46"/>
<path d="M80.9999 138.839C79.9727 138.847 78.9717 138.514 78.1543 137.892C77.3369 137.27 76.7493 136.394 76.4839 135.401L74.0659 125.967C73.9968 125.699 74.0372 125.414 74.1781 125.176C74.319 124.937 74.5489 124.764 74.8173 124.695C75.0857 124.626 75.3705 124.666 75.6091 124.807C75.8476 124.948 76.0205 125.178 76.0895 125.447L78.5001 134.888C78.6829 135.535 79.1113 136.084 79.6938 136.419C80.2762 136.754 80.9666 136.848 81.6175 136.681C81.9487 136.606 82.2616 136.465 82.5376 136.267C82.8136 136.069 83.0472 135.818 83.2245 135.528C83.3886 135.261 83.4969 134.964 83.5429 134.655C83.5889 134.345 83.5717 134.03 83.4923 133.727L80.5163 122.106C80.2079 121.01 79.484 120.079 78.4987 119.509C77.5135 118.939 76.3448 118.776 75.2414 119.056C74.6808 119.183 74.1515 119.422 73.685 119.758C73.2185 120.095 72.8243 120.521 72.5258 121.012C72.2468 121.467 72.0622 121.974 71.9829 122.502C71.9037 123.03 71.9314 123.568 72.0645 124.085L72.1389 124.368C72.1995 124.632 72.1546 124.91 72.0136 125.142C71.8727 125.373 71.6468 125.541 71.3841 125.609C71.1214 125.677 70.8427 125.64 70.6071 125.505C70.3715 125.37 70.1977 125.149 70.1227 124.889L70.0483 124.598C69.8449 123.814 69.8014 122.997 69.9202 122.196C70.0391 121.394 70.3179 120.625 70.7402 119.934C71.1822 119.205 71.7653 118.573 72.4552 118.073C73.1452 117.574 73.928 117.217 74.7578 117.024C76.3871 116.634 78.1043 116.893 79.5467 117.745C80.9891 118.598 82.0437 119.977 82.4879 121.593L85.4639 133.214C85.6075 133.785 85.6367 134.379 85.5498 134.961C85.463 135.543 85.2619 136.102 84.958 136.607C84.6394 137.134 84.2175 137.592 83.7176 137.953C83.2178 138.313 82.6502 138.569 82.049 138.705C81.7055 138.789 81.3536 138.834 80.9999 138.839Z" fill="#CCB183"/>
<path d="M59.0807 35.8993L37.9023 39.106L38.8268 45.2116L60.0052 42.0049L59.0807 35.8993Z" fill="#CCB183"/>
<path d="M53.2244 45.6403L46.3759 46.6773L52.1098 84.5468L58.9584 83.5098L53.2244 45.6403Z" fill="#CCB183"/>
<path d="M257.576 5.84412L236.398 9.05083L237.322 15.1564L258.501 11.9497L257.576 5.84412Z" fill="#CCB183"/>
<path d="M251.727 15.584L244.879 16.621L250.613 54.4904L257.461 53.4535L251.727 15.584Z" fill="#CCB183"/>
<path d="M77.0716 74.304C75.539 74.0957 74.4527 72.9053 74.051 70.2492L70.2417 45.1243C69.8399 42.4682 70.5319 41.0026 71.9306 40.3553L70.9113 33.6593C65.0486 35.0506 62.4074 39.6708 63.4713 46.6495L67.1318 70.8444C68.1883 77.8231 72.0794 81.4538 78.0983 81.0521L77.0716 74.304Z" fill="#CCB183"/>
<path d="M73.307 33.3022L74.3188 39.9982C75.8515 40.2065 76.9452 41.3969 77.3469 44.053L81.1488 69.1778C81.5505 71.8414 80.866 73.2996 79.4599 73.9469L80.4792 80.6429C86.3493 79.2442 88.9905 74.6239 87.9192 67.6452L84.2661 43.5024C83.232 36.5311 79.3185 32.9004 73.307 33.3022Z" fill="#CCB183"/>
<path d="M92.9806 30.7638L86.7279 31.7105L93.7729 78.2382L100.026 77.2914L92.9806 30.7638Z" fill="#CCB183"/>
<path d="M96.8248 30.1848L95.3368 30.4006L96.3412 37.0519L97.8292 36.8287C100.009 36.5014 101.356 37.3793 101.854 40.705L102.911 47.6837C103.417 51.0094 102.397 52.2518 100.21 52.5792L98.7666 52.8024L99.771 59.424L101.259 59.2082C108.111 58.1666 110.864 53.6059 109.733 46.1585L108.818 40.1098C107.65 32.6921 103.67 29.1432 96.8248 30.1848Z" fill="#CCB183"/>
<path d="M162.706 40.2708L155.173 41.4114L156.179 48.054L163.712 46.9134L162.706 40.2708Z" fill="#CCB183"/>
<path d="M149.814 22.1598L143.48 23.1188L150.525 69.6465L156.859 68.6875L149.814 22.1598Z" fill="#CCB183"/>
<path d="M162.166 20.2905L152.199 21.7997L153.206 28.4497L163.173 26.9404L162.166 20.2905Z" fill="#CCB183"/>
<path d="M168.202 60.1702L158.235 61.6794L159.242 68.3294L169.209 66.8202L168.202 60.1702Z" fill="#CCB183"/>
<path d="M181.187 58.5238C179.625 58.3601 178.516 57.2143 178.114 54.521L174.305 29.3962C173.896 26.7029 174.61 25.2446 176.053 24.6048L175.034 17.9088C169.008 19.2331 166.456 23.8608 167.527 30.9288L171.188 55.1237C172.259 62.1991 176.068 65.8596 182.214 65.3388L181.187 58.5238Z" fill="#CCB183"/>
<path d="M177.43 17.5591L178.442 24.2551C179.93 24.4858 181.008 25.6836 181.418 28.3025L182.162 33.2947L188.642 32.3126L187.957 27.7891C186.916 20.9294 183.278 17.2764 177.43 17.5591Z" fill="#CCB183"/>
<path d="M185.212 53.472C185.606 56.0983 184.937 57.5119 183.575 58.1592L184.594 64.937C190.271 63.449 192.667 58.9106 191.618 52.0286L190.688 45.846L184.208 46.776L185.212 53.472Z" fill="#CCB183"/>
<path d="M196.257 15.1307L190.439 16.0118L197.484 62.5394L203.302 61.6584L196.257 15.1307Z" fill="#CCB183"/>
<path d="M217.152 53.7696L216.066 46.59C215.322 41.7391 213.677 38.406 210.017 37.3793C212.837 35.3854 213.804 32.0448 213.075 27.2609L212.524 23.6078C211.438 16.4282 207.852 13.3704 200.747 14.4418L198.611 14.7691L199.616 21.413L201.565 21.1154C203.998 20.7509 205.285 22.0529 205.776 25.3786L206.476 29.9616C207.041 33.6816 205.665 35.1175 203.105 35.5044L201.781 35.7053L202.785 42.3492L203.805 42.193C206.914 41.7242 208.529 43.1155 209.184 47.401L210.292 54.7145C210.865 58.5014 211.222 59.1785 211.78 60.3317L218.759 59.2752C217.836 57.683 217.524 56.0314 217.152 53.7696Z" fill="#CCB183"/>
<path d="M221.822 11.2564L215.474 12.2177L222.519 58.7453L228.867 57.7841L221.822 11.2564Z" fill="#CCB183"/>
<path d="M234.699 29.3623L227.181 30.5006L228.187 37.1432L235.705 36.0049L234.699 29.3623Z" fill="#CCB183"/>
<path d="M240.543 49.2728L230.577 50.7827L231.586 57.4412L241.552 55.9313L240.543 49.2728Z" fill="#CCB183"/>
<path d="M234.168 9.38928L224.215 10.8963L225.222 17.5462L235.174 16.0392L234.168 9.38928Z" fill="#CCB183"/>
<path d="M134.36 65.681C132.656 65.6215 131.451 64.4981 131.019 61.6485L130.521 58.3303L124.04 59.3124L124.472 62.1619C125.536 69.1927 129.308 72.8532 135.379 72.3919L134.36 65.681Z" fill="#CCB183"/>
<path d="M131.592 31.3157C133.154 31.4868 134.203 32.6772 134.613 35.4002L134.91 37.3346L141.405 36.36L141.182 34.872C140.133 27.9305 136.487 24.27 130.595 24.6197L131.592 31.3157Z" fill="#CCB183"/>
<path d="M127.775 36.4418C127.388 33.8676 127.946 32.4242 129.226 31.7472L128.199 24.9842C122.374 26.3532 119.941 30.9362 120.997 37.9447C123.006 51.24 136.674 51.0019 138.109 60.5772C138.481 63.0473 137.923 64.4534 136.711 65.1454L137.752 72.005C143.503 70.5766 145.936 66.001 144.887 59.0743C142.893 45.779 129.226 46.032 127.775 36.4418Z" fill="#CCB183"/>
<path d="M244.137 293.97V324.474H239.04V327.792H244.137V348.215H339.369V329.615H332.316V325.568H339.369V319.489H342.508V316.729H338.788V293.97H244.137Z" fill="white"/>
<path d="M314.103 294.059V347.888H339.391V329.303H332.338V325.597L339.391 325.724V319.645L342.59 319.653L342.531 316.513L338.803 316.424V293.97L314.103 294.059Z" fill="#CCB183"/>
<path d="M315.903 327.368C315.903 327.554 298.665 327.703 277.408 327.703C256.152 327.703 238.906 327.554 238.906 327.368C238.906 327.182 256.145 327.026 277.408 327.026C298.672 327.026 315.903 327.182 315.903 327.368Z" fill="#CCB183"/>
<path d="M315.903 324.288C315.903 324.474 298.665 324.623 277.408 324.623C256.152 324.623 238.906 324.474 238.906 324.288C238.906 324.102 256.145 323.946 277.408 323.946C298.672 323.946 315.903 324.08 315.903 324.288Z" fill="#CCB183"/>
<path d="M320.843 315.918C320.843 316.111 303.612 316.26 282.349 316.26C261.085 316.26 243.854 316.111 243.854 315.918C243.854 315.725 261.085 315.583 282.349 315.583C303.612 315.583 320.843 315.732 320.843 315.918Z" fill="#CCB183"/>
<path d="M321.312 338.662C321.312 338.848 304.073 338.997 282.817 338.997C261.561 338.997 244.323 338.848 244.323 338.662C244.323 338.476 261.554 338.32 282.817 338.32C304.081 338.32 321.312 338.469 321.312 338.662Z" fill="#CCB183"/>
<path d="M35.7722 318.128V334.28H29.3069V336.036H35.7722V346.846H156.635V337.01H147.707V334.868H156.635V331.654H160.608V330.166H155.884V318.128H35.7722Z" fill="white"/>
<path d="M124.539 318.18V346.668H156.635V336.832H147.677V334.868L156.635 334.935V331.721H160.69L160.608 330.061L155.884 330.009V318.128L124.539 318.18Z" fill="#CCB183"/>
<path d="M126.823 335.805C126.823 335.902 104.957 335.984 77.9793 335.984C51.0019 335.984 29.1357 335.902 29.1357 335.805C29.1357 335.708 51.0019 335.627 77.9793 335.627C104.957 335.627 126.823 335.708 126.823 335.805Z" fill="#CCB183"/>
<path d="M126.823 334.161C126.823 334.265 104.957 334.339 77.9793 334.339C51.0019 334.339 29.1357 334.265 29.1357 334.161C29.1357 334.057 51.0019 333.982 77.9793 333.982C104.957 333.982 126.823 334.064 126.823 334.161Z" fill="#CCB183"/>
<path d="M133.08 329.749C133.08 329.846 111.214 329.928 84.2437 329.928C57.2737 329.928 35.3927 329.846 35.3927 329.749C35.3927 329.652 57.2589 329.57 84.2437 329.57C111.229 329.57 133.08 329.652 133.08 329.749Z" fill="#CCB183"/>
<path d="M133.697 341.779C133.697 341.884 111.831 341.958 84.8613 341.958C57.8913 341.958 36.0103 341.884 36.0103 341.779C36.0103 341.675 57.8764 341.601 84.8613 341.601C111.846 341.601 133.697 341.683 133.697 341.779Z" fill="#CCB183"/>
<path d="M126.801 36.0178C116.236 35.6309 105.671 41.077 100.872 49.4098C98.542 53.5647 97.5756 58.3466 98.1096 63.0804C98.6436 67.8141 100.651 72.2606 103.848 75.792C98.6403 78.024 96.6687 84.601 99.9721 88.7674C103.275 92.9338 110.991 93.5736 115.112 90.0173C112.635 94.6598 115.358 100.649 120.32 103.29C125.283 105.931 131.86 105.522 137.038 103.194C142.216 100.865 146.152 96.7803 149.136 92.3683L151.368 51.2698C147.372 42.6096 137.365 36.4046 126.801 36.0178Z" fill="#263238"/>
<path d="M123.244 98.4691C121.407 96.1478 120.455 93.2491 120.557 90.2905C120.659 87.3319 121.809 84.5059 123.802 82.3169C121.369 79.5046 122.046 75.0108 124.308 72.072C126.57 69.1332 130.037 67.3625 133.378 65.6885C134.94 57.1622 144.337 50.8754 152.93 52.6164C157.141 46.0171 166.56 44.6705 174.208 46.59C176.076 47.0587 177.928 47.6837 179.878 47.6093C181.284 47.4538 182.678 47.2053 184.051 46.8653C191.722 45.5782 199.564 50.6746 202.823 57.6533C203.262 58.8121 203.852 59.9078 204.578 60.912C205.62 62.147 207.16 62.8464 208.492 63.7838C209.918 64.8055 211.106 66.1238 211.974 67.6483C212.843 69.1728 213.37 70.8673 213.521 72.6151C213.752 75.5911 212.911 78.7382 214.265 81.3794C214.942 82.7038 216.125 83.7528 216.661 85.0994C218.231 89.117 213.826 93.4248 214.816 97.621C215.024 98.4691 215.441 99.2578 215.716 100.098C216.269 101.827 216.171 103.697 215.441 105.359C214.875 106.631 213.953 107.806 213.901 109.19C213.901 110.239 214.384 111.221 214.645 112.248C215.255 114.748 210.099 124.65 207.949 126.094L142.164 128.966C139.669 128.509 137.378 127.289 135.606 125.474C133.835 123.659 132.671 121.338 132.276 118.832C132.279 117.991 132.039 117.167 131.585 116.459C131.05 115.976 130.426 115.605 129.747 115.365C125.424 113.267 124.71 107.538 124.993 102.792C125.072 102.128 125.034 101.456 124.881 100.805C124.498 99.9244 123.941 99.1299 123.244 98.4691Z" fill="#263238"/>
<path d="M144.426 98.0674C143.823 86.5651 148.325 72.9276 159.693 66.8938C166.858 63.0919 172.549 62.8762 176.366 62.2958C181.725 61.6015 187.168 62.5348 191.99 64.9742C195.643 65.7182 209.362 77.2577 210.523 90.2702C211.803 104.741 212.755 122.456 211.319 133.318C208.373 155.162 189.624 158.376 189.624 158.376L189.512 172.512C179.044 188.411 160.415 189.17 148.087 174.699L144.426 98.0674Z" fill="#FFBF9D"/>
<path d="M180.012 131.16C180.085 130.123 180.538 129.148 181.284 128.423C181.969 127.74 182.858 127.298 183.816 127.164C184.774 127.03 185.749 127.21 186.596 127.679C188.3 128.653 188.657 130.513 188.523 132.641C187.712 133.943 187.139 135.215 185.614 135.468C185.376 135.468 185.138 135.535 184.87 135.55C183.668 135.637 182.478 135.274 181.529 134.531C181.035 134.123 180.642 133.606 180.379 133.022C180.115 132.438 179.99 131.801 180.012 131.16Z" fill="#FF9A6C"/>
<path d="M201.9 108.245C201.922 108.976 201.658 109.687 201.163 110.225C200.668 110.763 199.982 111.086 199.251 111.125C198.895 111.164 198.533 111.131 198.189 111.028C197.845 110.926 197.525 110.755 197.248 110.527C196.971 110.299 196.742 110.018 196.575 109.7C196.408 109.382 196.306 109.034 196.275 108.677C196.255 107.946 196.52 107.237 197.015 106.699C197.51 106.161 198.195 105.838 198.924 105.798C199.281 105.759 199.642 105.791 199.986 105.894C200.33 105.996 200.65 106.167 200.927 106.395C201.205 106.623 201.434 106.904 201.601 107.222C201.768 107.54 201.869 107.888 201.9 108.245Z" fill="#263238"/>
<path d="M205.68 98.7518C205.345 99.1238 203.165 97.6135 200.129 97.6954C197.094 97.7772 194.921 99.3322 194.564 98.9676C194.401 98.8114 194.743 98.1418 195.695 97.4201C196.995 96.4771 198.553 95.9575 200.159 95.9321C201.735 95.8838 203.285 96.3371 204.586 97.2266C205.516 97.9334 205.851 98.5807 205.68 98.7518Z" fill="#263238"/>
<path d="M188.501 122.88C188.501 122.709 190.361 122.344 193.411 121.883C194.155 121.786 194.899 121.615 195.033 121.087C195.167 120.558 194.854 119.71 194.46 118.855C193.686 117.015 192.873 115.088 192.02 113.074C188.634 104.838 186.157 98.0599 186.492 97.9334C186.827 97.807 189.855 104.362 193.24 112.598L195.583 118.416C195.896 119.279 196.424 120.253 196.06 121.392C195.952 121.665 195.784 121.911 195.567 122.11C195.351 122.308 195.092 122.455 194.81 122.538C194.384 122.666 193.944 122.739 193.5 122.753C190.427 122.991 188.515 123.051 188.501 122.88Z" fill="#263238"/>
<path d="M189.721 158.376C179.342 158.793 169.048 156.353 159.961 151.323C159.961 151.323 167.475 166.753 189.445 164.187L189.721 158.376Z" fill="#FF9A6C"/>
<path d="M203.388 86.7958C202.897 87.5398 200.561 87.1083 197.845 87.3984C195.13 87.6886 192.905 88.4475 192.288 87.8002C192.02 87.4877 192.288 86.766 193.218 86.0071C194.493 85.0771 195.997 84.5105 197.569 84.3677C199.142 84.2249 200.723 84.5112 202.146 85.1962C203.202 85.7765 203.604 86.4386 203.388 86.7958Z" fill="#263238"/>
<path d="M167.825 108.483C167.867 109.214 168.194 109.9 168.734 110.393C169.275 110.887 169.987 111.149 170.719 111.125C171.077 111.132 171.432 111.069 171.765 110.937C172.098 110.806 172.401 110.609 172.657 110.359C172.913 110.109 173.116 109.81 173.254 109.48C173.393 109.151 173.464 108.796 173.464 108.439C173.42 107.709 173.093 107.024 172.553 106.531C172.013 106.038 171.301 105.775 170.57 105.798C170.212 105.789 169.856 105.851 169.523 105.983C169.19 106.114 168.886 106.31 168.63 106.561C168.374 106.811 168.171 107.11 168.033 107.44C167.894 107.771 167.824 108.125 167.825 108.483Z" fill="#263238"/>
<path d="M164.164 100.932C164.536 101.274 166.575 99.5851 169.603 99.4438C172.631 99.3024 174.952 100.627 175.257 100.24C175.406 100.069 175.012 99.4363 174 98.7965C172.629 97.9775 171.04 97.5984 169.447 97.7103C167.873 97.7963 166.367 98.3798 165.146 99.3768C164.254 100.106 163.978 100.783 164.164 100.932Z" fill="#263238"/>
<path d="M163.74 89.184C164.38 89.8313 166.679 88.9831 169.484 88.7748C172.289 88.5665 174.692 88.9162 175.213 88.1722C175.436 87.8076 175.012 87.1529 173.933 86.5726C172.46 85.8559 170.815 85.5672 169.186 85.7393C167.572 85.8586 166.025 86.4311 164.722 87.391C163.74 88.135 163.458 88.8567 163.74 89.184Z" fill="#263238"/>
<path d="M146.152 118.431C146.107 116.809 144.121 113.037 142.492 112.828C138.154 112.263 130.372 112.828 130.588 123.646C130.855 138.474 146.212 135.059 146.212 134.628C146.212 134.196 146.301 124.018 146.152 118.431Z" fill="#FFBF9D"/>
<path d="M141.629 129.36C141.562 129.308 141.368 129.539 140.937 129.747C140.319 130.027 139.617 130.054 138.98 129.821C137.38 129.278 136.004 126.845 135.885 124.145C135.821 122.87 136.047 121.598 136.547 120.425C136.68 119.956 136.926 119.527 137.263 119.175C137.6 118.824 138.019 118.56 138.481 118.408C138.779 118.321 139.097 118.342 139.382 118.465C139.666 118.589 139.897 118.808 140.036 119.085C140.245 119.495 140.155 119.829 140.23 119.829C140.304 119.829 140.55 119.569 140.416 118.959C140.327 118.593 140.114 118.27 139.813 118.044C139.601 117.89 139.36 117.78 139.104 117.719C138.849 117.659 138.584 117.651 138.325 117.694C137.172 117.791 136.153 118.862 135.639 120.038C135.026 121.332 134.739 122.758 134.806 124.189C134.955 127.165 136.554 129.94 138.734 130.528C139.14 130.636 139.565 130.653 139.978 130.577C140.391 130.501 140.782 130.335 141.123 130.089C141.606 129.739 141.681 129.405 141.629 129.36Z" fill="#FF9A6C"/>
<path d="M213.863 90.4042C210.783 88.6111 208.782 86.1113 208.886 82.5773C206.885 83.2171 204.779 80.7098 203.567 79.021C202.354 77.3321 200.896 76.4988 200.933 74.4305C200.978 74.0194 200.913 73.6037 200.747 73.2252C200.427 72.6672 199.713 72.4812 199.088 72.325C197.481 71.8613 196.017 71.0009 194.83 69.8229C193.643 68.645 192.771 67.1874 192.295 65.5843C189.091 67.0604 185.572 67.7248 182.05 67.5187C181.288 68.6572 180.252 69.5861 179.038 70.2203C177.823 70.8545 176.469 71.1736 175.099 71.1484C173.729 71.1233 172.388 70.7546 171.197 70.0762C170.007 69.3978 169.006 68.4315 168.286 67.2658C167.799 68.1861 167.12 68.9907 166.295 69.6249C165.469 70.2592 164.517 70.7081 163.502 70.9411C161.466 71.4026 159.373 71.568 157.29 71.4322C157.721 73.4402 157.41 75.5366 156.415 77.3328C155.419 79.1291 153.805 80.5033 151.873 81.2009C151.338 81.3794 150.728 81.5506 150.497 82.0565C150.266 82.5624 150.549 83.1651 150.772 83.7007C152.164 87.0562 150.028 91.3937 146.45 92.3311C148.949 94.1539 148.808 98.5063 146.189 100.165C145.654 100.508 144.954 100.909 145.051 101.534C145.109 101.77 145.23 101.986 145.401 102.159C146.554 103.595 147.707 105.173 147.893 107.003C148.079 108.833 146.874 110.916 145.021 111.043C146.018 111.876 146.956 112.955 147.008 114.242C147.06 115.529 145.78 116.876 144.545 116.437C144.024 116.258 136.517 114.986 136.175 114.554C131.785 108.967 136.971 102.539 137.209 95.4708C137.447 88.4028 139.769 81.4985 143.161 75.2786C144.546 72.635 146.277 70.188 148.31 68.0023C150.762 65.6312 153.478 63.5493 156.404 61.7974C160.124 59.3719 163.971 56.9465 168.308 55.8454C176.358 53.7622 184.84 56.4554 192.481 59.7142C195.438 60.8459 198.23 62.3672 200.784 64.2377C203.76 66.5887 205.94 69.7135 207.882 72.9276C210.679 77.5776 213.03 82.5996 213.692 87.9713" fill="#263238"/>
<path d="M216.668 85.1441C216.47 84.5793 216.184 84.0495 215.82 83.5743C215.493 83.0907 215.024 82.5326 214.585 81.8035C214.084 80.9661 213.771 80.0291 213.67 79.0582C213.552 77.8389 213.54 76.6117 213.633 75.3902C213.759 73.9185 213.681 72.4364 213.402 70.9858C213.028 69.3177 212.314 67.7448 211.304 66.3655C210.752 65.6134 210.115 64.927 209.407 64.3195C208.647 63.6962 207.838 63.1339 206.989 62.6381C206.115 62.1385 205.327 61.5032 204.653 60.7558C204.042 59.905 203.542 58.9799 203.165 58.003C202.245 55.9129 200.96 54.0033 199.37 52.3635C197.674 50.5766 195.655 49.1275 193.418 48.0929C192.252 47.5474 191.03 47.1307 189.773 46.8504C188.472 46.5755 187.143 46.4605 185.815 46.5082C185.139 46.5437 184.466 46.6157 183.799 46.7239C183.129 46.843 182.474 46.9992 181.812 47.1331C180.497 47.4454 179.132 47.4834 177.802 47.2447C176.455 47.0141 175.123 46.5751 173.725 46.2701C170.89 45.6123 167.967 45.4238 165.072 45.7121C163.587 45.8737 162.122 46.1802 160.697 46.6272C157.742 47.5163 155.141 49.309 153.257 51.7534L152.722 52.4974L152.96 52.3932C150.731 52.001 148.447 52.0575 146.24 52.5596C144.034 53.0617 141.95 53.9992 140.111 55.3171C136.529 57.7199 134.029 61.4291 133.147 65.6513L133.266 65.5025C131.47 66.3502 129.731 67.3119 128.058 68.3818C126.433 69.4203 125.011 70.7465 123.862 72.2952C122.794 73.8163 122.168 75.6035 122.054 77.4586C121.907 79.2591 122.47 81.0457 123.624 82.4359V82.1904C121.679 84.3116 120.548 87.0527 120.432 89.928C120.248 92.4934 120.861 95.0532 122.188 97.2564C122.499 97.7601 122.847 98.24 123.229 98.6923C123.601 99.1387 123.973 99.5479 124.293 99.9943C124.608 100.414 124.805 100.91 124.866 101.43C124.915 101.942 124.915 102.458 124.866 102.97C124.755 104.851 124.86 106.738 125.179 108.595C125.428 110.099 125.969 111.54 126.771 112.836C127.378 113.794 128.201 114.597 129.174 115.179C129.963 115.67 130.662 115.842 131.041 116.109C131.242 116.234 131.429 116.378 131.599 116.541C131.456 116.348 131.276 116.184 131.071 116.057C130.684 115.775 129.992 115.574 129.234 115.09C128.293 114.497 127.5 113.698 126.912 112.754C126.152 111.464 125.646 110.039 125.424 108.558C125.121 106.717 125.033 104.847 125.164 102.985C125.209 102.458 125.209 101.928 125.164 101.4C125.092 100.838 124.882 100.301 124.554 99.8381C124.217 99.3762 123.857 98.9317 123.475 98.5063C123.107 98.064 122.774 97.5939 122.478 97.1002C121.191 94.9484 120.604 92.4502 120.797 89.9503C120.949 87.1742 122.074 84.5403 123.973 82.5103L124.093 82.3913L123.981 82.2648C122.894 80.9441 122.36 79.2534 122.493 77.5478C122.612 75.7662 123.219 74.0518 124.249 72.5928C125.37 71.089 126.757 69.8031 128.341 68.7984C129.996 67.743 131.716 66.7913 133.489 65.9489L133.586 65.9042V65.8001C134.443 61.6739 136.884 58.0486 140.386 55.704C142.176 54.4235 144.204 53.5127 146.35 53.0247C148.496 52.5367 150.718 52.4814 152.885 52.8619H153.027L153.123 52.7355L153.637 51.9915C155.464 49.6297 157.981 47.8953 160.839 47.029C162.234 46.5891 163.67 46.2876 165.124 46.1287C166.558 45.9814 168.001 45.9565 169.439 46.0543C170.855 46.1433 172.261 46.3473 173.643 46.6644C175.012 46.962 176.351 47.4084 177.742 47.6391C178.437 47.7637 179.142 47.8186 179.848 47.8027C180.544 47.7659 181.236 47.6713 181.916 47.52C182.586 47.3861 183.241 47.2298 183.888 47.1108C184.538 47.001 185.194 46.9314 185.852 46.9025C187.142 46.8514 188.434 46.9588 189.698 47.2224C190.926 47.4948 192.121 47.8989 193.262 48.4277C197.502 50.4108 200.897 53.8398 202.837 58.0997C203.231 59.1056 203.754 60.056 204.392 60.9269C205.091 61.7006 205.91 62.3564 206.818 62.8687C207.656 63.3501 208.455 63.8974 209.206 64.5055C211.188 66.1917 212.574 68.4721 213.157 71.0081C213.442 72.4327 213.53 73.8897 213.417 75.3382C213.334 76.578 213.359 77.8227 213.492 79.0582C213.614 80.0471 213.946 80.9984 214.466 81.8482C214.935 82.5922 215.404 83.1353 215.746 83.604C216.02 83.9576 216.269 84.3306 216.49 84.72C216.609 85.0102 216.661 85.1515 216.668 85.1441Z" fill="#455A64"/>
<path d="M159.864 49.1717C159.864 49.1717 160.251 48.9336 160.973 48.5616C161.995 48.0321 163.099 47.6799 164.239 47.52C165.91 47.2781 167.616 47.4782 169.186 48.1003C171.091 48.877 172.7 50.2365 173.784 51.984C174.112 52.5023 174.379 53.0565 174.58 53.6357C174.683 53.8866 174.731 54.1569 174.719 54.428C174.708 54.699 174.637 54.9643 174.513 55.2055L174.156 55.7189L174.759 55.5329C176.307 55.0662 177.976 55.2155 179.416 55.9495C180.563 56.5506 181.482 57.5092 182.035 58.68C182.408 59.4386 182.63 60.2623 182.69 61.1054C182.727 61.7006 182.69 62.028 182.69 62.028C182.69 62.028 182.69 61.9536 182.749 61.7974C182.791 61.5691 182.811 61.3374 182.809 61.1054C182.812 60.2274 182.624 59.3591 182.258 58.561C181.704 57.3274 180.757 56.3123 179.565 55.6742C178.038 54.8632 176.254 54.6816 174.595 55.1683L174.848 55.4957C175.013 55.2035 175.11 54.8779 175.132 54.5429C175.154 54.208 175.1 53.8725 174.975 53.5613C174.767 52.9452 174.487 52.3558 174.141 51.8054C173.014 49.9677 171.319 48.547 169.313 47.7581C167.673 47.1212 165.89 46.9437 164.157 47.2447C162.999 47.4376 161.886 47.8438 160.876 48.4426C160.604 48.6004 160.343 48.7769 160.095 48.9708C159.953 49.0824 159.864 49.1568 159.864 49.1717Z" fill="#455A64"/>
<path d="M136.011 66.864C136.011 66.864 136.175 67.0798 136.547 67.3848C137.085 67.816 137.666 68.19 138.281 68.5008C139.202 68.9835 140.218 69.2603 141.257 69.3118C142.604 69.3845 143.931 68.9521 144.977 68.0991L144.642 68.0544L145.096 68.6496C145.267 68.8431 145.453 69.0291 145.624 69.2225C146.693 70.2687 148.004 71.0353 149.441 71.4545C150.602 71.8005 151.82 71.9193 153.027 71.8042C153.834 71.7172 154.626 71.5169 155.378 71.209C155.646 71.1005 155.897 70.9525 156.122 70.77C155.109 71.1521 154.051 71.4022 152.975 71.514C151.812 71.5862 150.647 71.4424 149.537 71.0899C148.18 70.6779 146.941 69.9485 145.921 68.9621C145.758 68.7835 145.579 68.6124 145.423 68.4264L144.991 67.8684L144.835 67.6675L144.657 67.8238C143.703 68.6074 142.497 69.0173 141.264 68.977C140.262 68.9533 139.276 68.7201 138.37 68.2925C136.86 67.489 136.056 66.7822 136.011 66.864Z" fill="#455A64"/>
<path d="M128.46 80.8066C128.46 80.8066 128.46 80.9033 128.504 81.0818C128.585 81.3466 128.705 81.5975 128.861 81.8258C129.463 82.6244 130.341 83.1686 131.324 83.351C132.774 83.5655 134.255 83.3643 135.595 82.7707C136.339 82.4806 137.135 82.1904 137.938 81.7886C138.814 81.4006 139.527 80.7192 139.955 79.8617L140.044 79.6236L139.694 79.7426C141.068 80.8021 142.593 81.6498 144.218 82.2574C145.57 82.751 147.032 82.8617 148.444 82.5773C149.387 82.3874 150.267 81.9626 151.003 81.3422C151.198 81.1726 151.375 80.9831 151.531 80.7768C151.592 80.7092 151.64 80.631 151.673 80.5462C151.635 80.5462 151.412 80.814 150.891 81.2083C150.148 81.7557 149.287 82.1202 148.377 82.2722C147.023 82.499 145.634 82.3603 144.352 81.8705C142.775 81.257 141.297 80.4174 139.962 79.3781L139.716 79.1995L139.612 79.4971L139.538 79.698C139.148 80.4563 138.51 81.0578 137.73 81.4018C136.986 81.7886 136.182 82.0937 135.446 82.3913C134.176 82.9729 132.771 83.1967 131.384 83.0386C130.46 82.8935 129.617 82.4272 129.003 81.7217C128.8 81.4304 128.618 81.1245 128.46 80.8066Z" fill="#455A64"/>
<path d="M179.454 128.385C179.811 128.147 181.299 130.617 184.476 131.086C187.652 131.555 190.13 129.747 190.361 130.082C190.487 130.216 190.056 130.908 188.954 131.57C187.509 132.45 185.801 132.797 184.126 132.552C182.523 132.319 181.072 131.473 180.079 130.193C179.364 129.248 179.275 128.475 179.454 128.385Z" fill="#263238"/>
<path d="M141.643 143.883C140.539 143.869 139.461 143.54 138.537 142.935C137.613 142.33 136.88 141.474 136.425 140.467C135.969 139.461 135.811 138.345 135.967 137.252C136.123 136.158 136.587 135.132 137.306 134.293L137.871 134.776C137.135 135.64 136.716 136.73 136.684 137.865C136.652 139 137.009 140.111 137.695 141.015C138.382 141.919 139.357 142.562 140.458 142.836C141.56 143.109 142.722 142.999 143.752 142.521C144.782 142.044 145.618 141.229 146.121 140.211C146.624 139.193 146.764 138.034 146.518 136.926C146.272 135.818 145.654 134.827 144.768 134.118C143.881 133.409 142.779 133.024 141.643 133.028V132.284C143.146 132.338 144.568 132.972 145.612 134.054C146.656 135.136 147.239 136.58 147.239 138.083C147.239 139.587 146.656 141.031 145.612 142.113C144.568 143.195 143.146 143.829 141.643 143.883Z" fill="#455A64"/>
<path d="M218.327 268.295C219.667 268.295 267.431 258.704 267.431 258.704C267.431 258.704 254.411 184.915 229.487 180.889L214.994 240.893L216.661 268.295H218.327Z" fill="#455A64"/>
<path d="M238.378 269.172C244.048 240.008 235.484 222.211 235.484 222.211L229.458 180.889L196.603 174.193C196.603 174.193 191.216 184.111 171.188 183.865C160.772 183.717 147.335 166.419 147.335 166.419L117.776 174.223L124.561 288.1C124.561 288.1 116.176 319.988 106.527 347.471L242.359 347.836C240 333.863 230.269 290.674 230.269 290.674C232.932 284.067 237.694 275.117 238.378 269.172Z" fill="#455A64"/>
<g opacity="0.3">
<path d="M192.332 301.685L193.746 308.56H234.249L232.285 299.647L192.332 301.685Z" fill="black"/>
</g>
<path d="M224.391 199.006C224.435 199.074 224.472 199.146 224.503 199.222L224.8 199.861L225.901 202.339C226.869 204.489 228.305 207.547 230.09 211.386C231.876 215.225 233.989 219.756 236.042 224.949C237.047 227.546 238.021 230.313 238.832 233.245C239.652 236.273 240.187 239.372 240.432 242.5C240.909 248.536 240.785 254.605 240.06 260.617C239.512 265.524 238.644 270.39 237.463 275.184C236.703 278.426 235.709 281.609 234.487 284.707C234.078 285.816 233.654 286.634 233.393 287.192C233.267 287.453 233.163 287.668 233.081 287.825C232.999 287.981 232.969 288.04 232.969 288.04C232.982 287.959 233.01 287.881 233.051 287.81L233.319 287.162C233.565 286.59 233.959 285.764 234.346 284.655C235.511 281.546 236.465 278.362 237.203 275.125C238.335 270.33 239.165 265.47 239.688 260.572C240.38 254.583 240.493 248.541 240.023 242.53C239.778 239.423 239.25 236.345 238.445 233.334C237.642 230.425 236.682 227.665 235.692 225.068C233.684 219.86 231.586 215.329 229.845 211.498C228.104 207.666 226.69 204.556 225.775 202.391C225.306 201.312 224.964 200.464 224.733 199.884L224.473 199.229C224.439 199.157 224.412 199.083 224.391 199.006Z" fill="#263238"/>
<path d="M91.8401 263.734C91.8401 263.734 88.8641 272.163 110.366 270.393C131.867 268.622 137.842 255.156 137.842 255.156L133.578 238.788L106.117 232.389L94.6375 241.823L91.8401 263.734Z" fill="#455A64"/>
<g opacity="0.3">
<path d="M91.8401 263.734C91.8401 263.734 88.8641 272.163 110.366 270.393C131.867 268.622 137.842 255.156 137.842 255.156L133.578 238.788L106.117 232.389L94.6375 241.823L91.8401 263.734Z" fill="black"/>
</g>
<g opacity="0.3">
<path d="M192.6 183.672C190.569 181.284 185.48 182.296 185.792 185.428L119.986 303.344C130.104 309.348 142.164 315.248 153.086 310.926C163.688 306.7 168.613 294.558 172.155 283.614C181.738 253.943 189.438 223.595 193.902 192.712C194.348 189.624 194.653 186.045 192.6 183.672Z" fill="black"/>
</g>
<path d="M91.9963 224.123C91.9963 225.611 110.693 280.057 114.874 291.827C120.402 307.451 144.753 316.595 157.431 298.747C171.188 279.403 192.183 196.595 192.183 196.595L173.077 188.746L139.196 257.246L120.938 187.243L91.9963 224.123Z" fill="#FFBF9D"/>
<path d="M191.477 200.3C191.477 200.3 196.313 190.628 196.595 190.152C196.662 190.041 196.372 189.84 196.506 189.944C196.957 190.243 197.49 190.394 198.031 190.374C198.571 190.354 199.092 190.164 199.519 189.832C201.751 188.203 205.598 185.748 206.312 183.94C207.154 183.341 207.854 182.564 208.361 181.664C208.867 180.764 209.169 179.762 209.243 178.732C209.556 175.116 209.987 166.828 209.987 166.828C209.987 166.828 213.655 165.489 213.395 162.364C213.134 159.239 208.261 159.998 208.261 159.998C208.261 159.998 207.391 156.278 204.69 155.467C201.989 154.656 192.355 154.872 192.355 154.872C192.355 154.872 192.049 142.134 191.856 136.852C191.852 133.951 191.172 131.09 189.87 128.497C189.621 128.024 189.227 127.644 188.745 127.413C188.264 127.181 187.72 127.112 187.196 127.213C186.671 127.315 186.194 127.583 185.834 127.978C185.474 128.373 185.251 128.873 185.197 129.405C185.005 131.522 185.032 133.654 185.279 135.766C186.023 143.206 181.596 157.067 181.172 157.535C180.748 158.004 175.964 162.23 176.172 167.207C176.381 172.185 174.015 187.005 170.555 194.2" fill="#FFBF9D"/>
<path d="M170.57 194.155C170.57 194.155 170.622 194.006 170.734 193.738C170.845 193.471 171.031 193.061 171.24 192.526C171.649 191.447 172.229 189.84 172.817 187.727C173.405 185.614 174.03 183.002 174.603 179.945C175.275 176.483 175.742 172.985 176.001 169.469C176.001 168.978 176.053 168.487 176.053 167.981C176.053 167.475 176.053 166.977 176.053 166.448C176.13 165.383 176.381 164.337 176.797 163.353C177.701 161.291 178.997 159.423 180.614 157.855L180.919 157.55L181.068 157.401L181.15 157.238C181.254 157 181.358 156.717 181.455 156.442C181.648 155.898 181.827 155.333 182.005 154.768C182.358 153.632 182.69 152.469 183.002 151.278C183.62 148.905 184.185 146.442 184.609 143.89C185.082 141.29 185.259 138.644 185.138 136.004C185.019 134.657 184.9 133.273 184.907 131.882C184.907 131.183 184.907 130.483 184.989 129.777C184.991 129.023 185.272 128.297 185.778 127.738C186.05 127.471 186.376 127.264 186.733 127.129C187.091 126.995 187.472 126.936 187.853 126.957C188.239 126.98 188.615 127.086 188.955 127.268C189.296 127.451 189.593 127.705 189.825 128.013C190.584 129.279 191.134 130.658 191.454 132.098C191.797 133.541 191.999 135.013 192.057 136.495C192.102 137.983 192.146 139.471 192.191 140.959C192.317 145.683 192.444 150.326 192.563 154.835L192.369 154.649C195.576 154.604 198.723 154.611 201.796 154.835C202.564 154.885 203.329 154.977 204.087 155.11C204.867 155.226 205.6 155.552 206.208 156.055C207.312 157.1 208.088 158.444 208.44 159.924L208.231 159.79C209.321 159.625 210.433 159.686 211.498 159.968C212.035 160.119 212.525 160.406 212.919 160.801C213.281 161.22 213.506 161.739 213.566 162.289C213.605 162.826 213.534 163.366 213.358 163.874C213.168 164.368 212.896 164.825 212.554 165.228C211.857 165.98 211 166.565 210.047 166.939L210.158 166.798C209.935 170.151 209.724 173.338 209.526 176.359C209.481 177.103 209.429 177.847 209.385 178.591C209.322 179.323 209.161 180.043 208.909 180.733C208.411 182.059 207.524 183.202 206.364 184.014L206.424 183.955C205.988 184.778 205.391 185.504 204.668 186.09C203.998 186.685 203.306 187.206 202.637 187.712C201.967 188.218 201.29 188.672 200.643 189.126L199.69 189.795C199.386 190.032 199.04 190.211 198.671 190.323C198.317 190.438 197.942 190.473 197.572 190.426C197.203 190.378 196.849 190.249 196.536 190.048L196.424 189.974C196.357 190.123 196.595 189.795 196.551 189.825L196.603 189.877C196.64 189.92 196.668 189.971 196.685 190.026C196.694 190.047 196.698 190.07 196.698 190.093C196.698 190.116 196.694 190.139 196.685 190.16V190.219L196.461 190.666L196.022 191.521L194.46 194.587C193.523 196.409 192.793 197.83 192.288 198.805L191.722 199.899C191.588 200.144 191.514 200.263 191.514 200.263C191.514 200.263 191.566 200.129 191.685 199.884L192.221 198.775L194.334 194.512L195.866 191.432L196.298 190.569L196.521 190.123C196.521 190.123 196.521 190.07 196.566 190.078L196.521 190.011L196.484 189.974C196.439 189.974 196.67 189.661 196.603 189.817L196.707 189.892C196.996 190.071 197.321 190.185 197.66 190.225C197.998 190.265 198.341 190.23 198.664 190.123C199.012 190.016 199.338 189.844 199.623 189.617L200.576 188.94C201.216 188.486 201.878 188.017 202.547 187.519C203.217 187.02 203.901 186.484 204.556 185.897C205.249 185.337 205.819 184.641 206.23 183.851V183.813C207.329 183.024 208.168 181.926 208.641 180.659C209.161 179.357 209.109 177.861 209.228 176.359C209.417 173.343 209.615 170.156 209.824 166.798V166.694H209.928C210.827 166.333 211.634 165.774 212.286 165.057C212.608 164.692 212.86 164.271 213.03 163.815C213.187 163.353 213.248 162.865 213.209 162.379C213.166 161.896 212.974 161.438 212.658 161.069C212.308 160.713 211.869 160.456 211.386 160.325C210.375 160.054 209.318 159.999 208.284 160.162H208.127L208.083 159.998C207.737 158.594 206.993 157.32 205.94 156.33C204.846 155.355 203.232 155.363 201.736 155.199C198.693 154.983 195.546 154.976 192.347 155.021H192.161V154.827C192.035 150.318 191.908 145.683 191.782 140.952C191.663 137.976 191.782 135 191.038 132.18C190.727 130.789 190.2 129.456 189.475 128.229C189.278 127.963 189.024 127.745 188.732 127.589C188.44 127.433 188.117 127.344 187.786 127.329C187.459 127.309 187.131 127.358 186.824 127.472C186.516 127.586 186.236 127.763 186.001 127.991C185.554 128.486 185.312 129.132 185.324 129.799C185.264 130.483 185.234 131.175 185.242 131.867C185.242 133.244 185.346 134.605 185.458 135.959C185.583 138.63 185.401 141.306 184.915 143.935C184.483 146.502 183.918 148.972 183.285 151.375C182.973 152.565 182.63 153.733 182.281 154.872C182.095 155.445 181.916 156.01 181.715 156.561C181.619 156.843 181.514 157.111 181.388 157.401C181.35 157.478 181.308 157.553 181.261 157.625L181.105 157.788L180.8 158.093C179.207 159.626 177.926 161.453 177.028 163.472C176.619 164.417 176.368 165.422 176.284 166.448C176.284 166.947 176.284 167.46 176.284 167.936C176.284 168.413 176.284 168.941 176.232 169.424C175.943 172.95 175.446 176.455 174.744 179.922C174.141 182.988 173.494 185.599 172.884 187.712C172.417 189.333 171.868 190.93 171.24 192.496C171.017 193.024 170.823 193.418 170.697 193.694C170.57 193.969 170.57 194.155 170.57 194.155Z" fill="#FF9A6C"/>
<path d="M205.062 184.81C205.107 184.672 205.17 184.539 205.248 184.416C205.389 184.133 205.575 183.776 205.791 183.337C206.489 182.038 207.026 180.659 207.391 179.23C207.621 178.256 207.678 177.249 207.562 176.254C207.449 175.109 207.007 174.021 206.29 173.122C205.421 172.189 204.356 171.46 203.172 170.987C201.959 170.414 200.665 169.893 199.326 169.402C197.987 168.911 196.655 168.48 195.375 168.048C194.157 167.621 192.915 167.266 191.655 166.984C189.259 166.463 186.946 166.62 185.331 167.542C184.013 168.198 182.979 169.311 182.422 170.674C182.256 171.184 182.146 171.71 182.095 172.244C182.08 172.103 182.08 171.961 182.095 171.82C182.11 171.413 182.18 171.01 182.303 170.622C182.806 169.197 183.826 168.013 185.16 167.304C186.075 166.79 187.09 166.48 188.136 166.396C189.327 166.301 190.525 166.381 191.692 166.634C192.967 166.91 194.225 167.263 195.457 167.691C196.744 168.115 198.068 168.547 199.422 169.038C200.777 169.529 202.071 170.057 203.299 170.645C204.529 171.136 205.633 171.899 206.528 172.877C207.28 173.831 207.738 174.984 207.845 176.195C207.952 177.232 207.877 178.279 207.621 179.29C207.227 180.732 206.644 182.115 205.888 183.404C205.635 183.865 205.427 184.215 205.278 184.453C205.225 184.583 205.152 184.703 205.062 184.81Z" fill="#FF9A6C"/>
<path d="M192.183 198.894C192.22 198.756 192.275 198.623 192.347 198.5C192.481 198.21 192.66 197.845 192.875 197.399C193.091 196.952 193.396 196.342 193.709 195.658C194.067 194.889 194.349 194.087 194.549 193.262C194.732 192.249 194.804 191.218 194.765 190.189C194.748 189.005 194.591 187.826 194.296 186.678C193.753 184.223 192.719 181.611 192.287 178.657V178.494L192.459 178.449C192.736 178.371 193.005 178.266 193.262 178.137C193.749 177.881 194.181 177.532 194.534 177.11C194.886 176.687 195.152 176.199 195.316 175.674L195.449 175.228L195.665 175.637C196.003 176.256 196.501 176.773 197.107 177.134C197.713 177.495 198.405 177.687 199.11 177.69H199.4L199.281 177.951C198.53 179.602 198.414 181.472 198.954 183.203L198.998 183.36L198.842 183.404C197.844 183.661 196.973 184.271 196.389 185.12C195.805 185.969 195.548 187.001 195.665 188.024C195.747 188.588 195.966 189.122 196.305 189.579C196.536 189.899 196.685 190.056 196.67 190.063C196.655 190.07 196.625 190.063 196.543 189.966C196.461 189.87 196.365 189.788 196.231 189.639C195.849 189.181 195.593 188.633 195.487 188.047C195.352 187.118 195.513 186.17 195.948 185.339C196.24 184.794 196.64 184.315 197.123 183.932C197.607 183.548 198.164 183.267 198.76 183.107L198.649 183.307C198.06 181.502 198.167 179.541 198.946 177.809L199.11 178.062C198.337 178.064 197.577 177.857 196.911 177.465C196.245 177.072 195.696 176.507 195.323 175.83L195.673 175.793C195.502 176.37 195.216 176.907 194.833 177.372C194.449 177.836 193.976 178.217 193.441 178.494C193.159 178.64 192.862 178.755 192.555 178.836L192.697 178.628C193.113 181.5 194.133 184.133 194.668 186.618C194.952 187.793 195.097 188.996 195.1 190.204C195.13 191.258 195.04 192.311 194.832 193.344C194.617 194.184 194.31 194.997 193.917 195.769C193.589 196.454 193.284 197.027 193.031 197.488C192.779 197.949 192.578 198.314 192.436 198.559C192.363 198.679 192.278 198.791 192.183 198.894Z" fill="#FF9A6C"/>
<path d="M209.02 168.472C208.939 168.028 208.827 167.591 208.685 167.163C208.234 166.037 207.483 165.056 206.513 164.328C205.045 163.258 203.315 162.605 201.506 162.438C199.475 162.148 197.19 162.252 194.81 162.081C193.635 162.009 192.473 161.807 191.343 161.478C190.249 161.151 189.245 160.734 188.255 160.482C187.341 160.195 186.37 160.136 185.428 160.31C184.62 160.497 183.888 160.925 183.33 161.538C182.545 162.479 181.94 163.556 181.544 164.715C181.412 165.147 181.25 165.57 181.061 165.98C181.073 165.864 181.095 165.749 181.128 165.637C181.18 165.414 181.276 165.079 181.403 164.663C181.75 163.455 182.337 162.329 183.129 161.352C183.716 160.681 184.495 160.208 185.361 159.998C186.349 159.795 187.372 159.844 188.337 160.139C189.356 160.4 190.375 160.794 191.447 161.114C192.55 161.432 193.686 161.627 194.832 161.694C197.198 161.865 199.497 161.769 201.573 162.081C203.436 162.274 205.209 162.977 206.699 164.112C207.694 164.896 208.439 165.954 208.842 167.155C208.94 167.48 209.008 167.814 209.042 168.152C209.05 168.259 209.042 168.367 209.02 168.472Z" fill="#FF9A6C"/>
<path d="M185.844 155.035C187.044 155.141 188.249 155.18 189.453 155.154C191.447 155.021 192.972 154.411 193.017 154.522C191.924 155.105 190.721 155.453 189.485 155.541C188.25 155.63 187.009 155.457 185.844 155.035Z" fill="#FF9A6C"/>
<path d="M210.002 166.828C209.876 166.828 209.772 165.191 209.258 163.264C208.745 161.337 207.956 159.894 208.068 159.834C208.828 160.818 209.363 161.955 209.638 163.167C209.998 164.352 210.122 165.596 210.002 166.828Z" fill="#FF9A6C"/>
<path d="M91.8401 263.734C91.8401 262.811 84.6456 214.027 91.2226 196.677C97.9186 179.015 117.776 174.171 117.776 174.171L135.595 242.85C126.868 241.162 117.834 242.163 109.689 245.722C98.2608 250.766 91.8401 263.734 91.8401 263.734Z" fill="#455A64"/>
<path d="M124.561 198.232C124.665 198.232 127.217 208.172 130.268 220.493C133.318 232.813 135.699 242.813 135.595 242.85C135.491 242.887 132.931 232.91 129.888 220.589C126.845 208.269 124.457 198.254 124.561 198.232Z" fill="#263238"/>
<path d="M133.973 281.404C133.83 281.091 133.718 280.764 133.638 280.429C133.511 280.044 133.407 279.651 133.326 279.254C133.2 278.733 133.1 278.207 133.028 277.676C132.939 277.089 132.849 276.441 132.812 275.742C132.775 275.043 132.76 274.291 132.753 273.51C132.824 270.074 133.583 266.686 134.985 263.548C135.327 262.804 135.639 262.157 135.997 261.547C136.354 260.936 136.688 260.386 137.016 259.887C137.343 259.389 137.678 258.965 137.961 258.585C138.243 258.206 138.511 257.893 138.705 257.648C138.925 257.374 139.174 257.124 139.449 256.904C139.508 256.956 138.511 258.035 137.217 260.029C136.904 260.527 136.562 261.078 136.249 261.695C135.937 262.313 135.61 262.975 135.282 263.682C133.921 266.787 133.164 270.122 133.05 273.51C133.05 274.254 133.05 274.998 133.05 275.742C133.05 276.486 133.147 277.074 133.214 277.662C133.601 279.983 134.055 281.389 133.973 281.404Z" fill="#FF9A6C"/>
<path d="M300.874 228.766L234.428 229.197L223.915 218.714C223.005 217.803 221.924 217.079 220.734 216.585C219.545 216.091 218.269 215.836 216.981 215.835H191.439C191.039 215.837 190.644 215.921 190.278 216.082C189.912 216.243 189.582 216.476 189.31 216.769C189.037 217.062 188.828 217.407 188.693 217.784C188.559 218.161 188.504 218.561 188.53 218.96L190.219 297.162C190.239 298.397 190.741 299.576 191.618 300.447C192.495 301.317 193.678 301.81 194.914 301.819L291.039 301.901C293.993 301.888 296.824 300.72 298.929 298.648C301.034 296.575 302.245 293.761 302.303 290.808L303.791 231.794C303.805 231.402 303.74 231.011 303.6 230.645C303.459 230.278 303.247 229.944 302.975 229.661C302.703 229.379 302.376 229.154 302.016 229C301.655 228.846 301.267 228.767 300.874 228.766Z" fill="#FFDDA4"/>
<g opacity="0.3">
<path d="M197.064 224.399L196.67 223.275C196.67 223.275 195.055 223.111 194.177 228.721C193.299 234.331 191.142 294.937 191.142 294.937L198.158 226.229L197.064 224.399Z" fill="black"/>
</g>
<path d="M193.642 297.504L299.9 290.711C300.48 290.676 301.028 290.43 301.439 290.018C301.85 289.607 302.096 289.06 302.132 288.479L305.509 222.955C305.529 222.633 305.482 222.31 305.372 222.007C305.263 221.704 305.092 221.426 304.871 221.19C304.651 220.955 304.384 220.767 304.088 220.638C303.793 220.509 303.474 220.442 303.151 220.44H199.244C198.642 220.445 198.064 220.678 197.628 221.093C197.191 221.507 196.929 222.072 196.893 222.672L191.112 294.93C191.082 295.271 191.127 295.616 191.243 295.938C191.359 296.261 191.543 296.555 191.784 296.8C192.024 297.045 192.315 297.234 192.635 297.356C192.956 297.477 193.299 297.528 193.642 297.504Z" fill="#FAFAFA"/>
<path d="M309.222 225.18H205.583C204.426 225.185 203.311 225.607 202.44 226.368C201.57 227.129 201.003 228.179 200.844 229.324L190.911 297.727L194.482 301.916H298.047C299.185 301.909 300.284 301.498 301.148 300.757C302.012 300.016 302.584 298.992 302.764 297.869L313.924 230.834C314.044 230.145 314.012 229.438 313.832 228.763C313.652 228.087 313.327 227.458 312.879 226.921C312.432 226.383 311.874 225.949 311.242 225.648C310.611 225.348 309.921 225.188 309.222 225.18Z" fill="#FFDDA4"/>
<path d="M223.364 262.655L223.193 260.52L215.895 261.13L216.066 263.258L223.364 262.655Z" fill="#263238"/>
<path d="M218.61 263.942L219.682 277.163L222.04 276.97L220.969 263.749L218.61 263.942Z" fill="#263238"/>
<path d="M291.805 256.949L291.626 254.821L284.328 255.431L284.499 257.559L291.805 256.949Z" fill="#263238"/>
<path d="M287.043 258.243L288.115 271.464L290.481 271.271L289.402 258.05L287.043 258.243Z" fill="#263238"/>
<path d="M228.438 274.224C227.918 274.12 227.575 273.681 227.501 272.736L226.757 263.965C226.683 263.035 226.95 262.551 227.449 262.357L227.255 260.014C225.217 260.356 224.213 261.889 224.406 264.329L225.098 272.773C225.291 275.206 226.534 276.553 228.602 276.56L228.438 274.224Z" fill="#263238"/>
<path d="M228.111 259.954L228.297 262.305C228.818 262.41 229.16 262.849 229.235 263.793L229.979 272.565C230.053 273.495 229.785 273.979 229.294 274.172L229.48 276.523C231.519 276.174 232.523 274.641 232.33 272.208L231.645 263.756C231.414 261.308 230.172 259.962 228.111 259.954Z" fill="#263238"/>
<path d="M234.881 259.545L232.731 259.724L234.048 275.973L236.206 275.787L234.881 259.545Z" fill="#263238"/>
<path d="M236.206 259.434L235.707 259.478L235.893 261.799L236.392 261.755C237.136 261.695 237.582 262.03 237.679 263.191L237.88 265.631C237.969 266.784 237.59 267.193 236.838 267.253L236.34 267.298L236.533 269.619L237.032 269.574C239.39 269.381 240.439 267.871 240.223 265.267L240.052 263.154C239.844 260.557 238.572 259.24 236.206 259.434Z" fill="#263238"/>
<path d="M258.451 264.478L255.855 264.694L256.041 267.007L258.637 266.799L258.451 264.478Z" fill="#263238"/>
<path d="M254.471 257.916L252.291 258.094L253.608 274.343L255.795 274.157L254.471 257.916Z" fill="#263238"/>
<path d="M255.297 257.849L255.483 260.163L258.92 259.88L258.734 257.559L255.297 257.849Z" fill="#263238"/>
<path d="M256.614 274.09L260.051 273.8L259.865 271.479L256.428 271.769L256.614 274.09Z" fill="#263238"/>
<path d="M264.337 271.218C263.801 271.129 263.451 270.705 263.377 269.768L262.633 260.996C262.558 260.051 262.834 259.567 263.34 259.381L263.154 257.03C261.063 257.343 260.088 258.883 260.282 261.353L260.974 269.797C261.175 272.268 262.387 273.622 264.493 273.592L264.337 271.218Z" fill="#263238"/>
<path d="M264.024 256.978L264.21 259.322C264.716 259.434 265.051 259.872 265.125 260.81L265.267 262.551L267.499 262.365L267.365 260.788C267.164 258.362 266.011 257.016 264.024 256.978Z" fill="#263238"/>
<path d="M265.825 269.559C265.899 270.474 265.639 270.951 265.155 271.144L265.348 273.51C267.32 273.138 268.243 271.613 268.049 269.21L267.871 267.052L265.639 267.238L265.825 269.559Z" fill="#263238"/>
<path d="M270.482 256.584L268.481 256.748L269.797 272.989L271.806 272.826L270.482 256.584Z" fill="#263238"/>
<path d="M276.724 270.43L276.523 267.923C276.382 266.226 275.898 265.028 274.671 264.597C275.682 263.972 276.092 262.841 275.95 261.174L275.846 259.895C275.645 257.388 274.492 256.249 272.044 256.45L271.3 256.51L271.494 258.831L272.163 258.779C272.997 258.704 273.406 259.188 273.503 260.349L273.629 261.948C273.733 263.25 273.235 263.712 272.349 263.786L271.895 263.823L272.081 266.144H272.431C273.51 266.055 274.023 266.568 274.15 268.079L274.358 270.631C274.356 271.308 274.482 271.98 274.73 272.61L277.141 272.409C276.871 271.784 276.729 271.111 276.724 270.43Z" fill="#263238"/>
<path d="M279.298 255.847L277.111 256.026L278.435 272.275L280.623 272.089L279.298 255.847Z" fill="#263238"/>
<path d="M283.271 262.41L280.682 262.625L280.868 264.947L283.465 264.731L283.271 262.41Z" fill="#263238"/>
<path d="M281.448 272.022L284.878 271.739L284.685 269.418L281.255 269.701L281.448 272.022Z" fill="#263238"/>
<path d="M280.124 255.78L280.31 258.102L283.747 257.812L283.554 255.49L280.124 255.78Z" fill="#263238"/>
<path d="M248.192 272.587C247.611 272.528 247.225 272.111 247.143 271.099L247.046 269.939L244.814 270.125L244.896 271.129C245.097 273.577 246.295 274.931 248.378 274.916L248.192 272.587Z" fill="#263238"/>
<path d="M248.05 260.646C248.579 260.743 248.906 261.182 248.988 262.134L249.04 262.804L251.272 262.618L251.235 262.112C251.034 259.686 249.881 258.332 247.857 258.318L248.05 260.646Z" fill="#263238"/>
<path d="M246.622 262.328C246.547 261.427 246.771 260.944 247.225 260.743L247.039 258.377C245.015 258.719 244.062 260.245 244.278 262.685C244.65 267.327 249.323 267.573 249.59 270.913C249.665 271.777 249.434 272.245 249.01 272.461L249.204 274.857C251.197 274.5 252.135 272.974 251.941 270.556C251.562 265.914 246.912 265.668 246.622 262.328Z" fill="#263238"/>
<path d="M213.551 284.298C212.871 284.299 212.214 284.056 211.698 283.614C211.402 283.366 211.159 283.061 210.982 282.717C210.806 282.373 210.7 281.998 210.672 281.612L208.76 258.027C208.694 257.259 208.934 256.496 209.429 255.905C209.924 255.314 210.633 254.943 211.401 254.873L293.985 247.991C294.362 247.959 294.742 248.003 295.102 248.119C295.462 248.235 295.795 248.422 296.083 248.668C296.674 249.175 297.042 249.893 297.11 250.669L299.022 274.254C299.09 275.023 298.85 275.788 298.355 276.381C297.86 276.974 297.15 277.346 296.381 277.416L213.834 284.291L213.551 284.298ZM294.193 248.727H294.015L211.468 255.602C210.894 255.655 210.365 255.933 209.996 256.375C209.626 256.816 209.447 257.387 209.496 257.96L211.416 281.545C211.435 281.83 211.511 282.108 211.639 282.364C211.766 282.619 211.943 282.847 212.16 283.033C212.373 283.215 212.62 283.353 212.887 283.438C213.154 283.524 213.435 283.556 213.715 283.532L296.299 276.657C296.872 276.606 297.401 276.33 297.771 275.889C298.14 275.448 298.32 274.879 298.27 274.306L296.351 250.714C296.331 250.429 296.255 250.151 296.127 249.896C296 249.64 295.823 249.413 295.607 249.226C295.212 248.893 294.709 248.716 294.193 248.727Z" fill="#263238"/>
<path d="M300.562 226.221L302.571 250.387L272.721 252.938L270.713 228.773L300.562 226.221Z" fill="#FAFAFA"/>
<path d="M300.562 226.221H300.413L299.996 226.266L298.375 226.415L292.266 226.958L270.69 228.833L270.757 228.751C271.36 235.945 272.052 244.189 272.781 252.916L272.684 252.834L302.533 250.297L302.474 250.379C301.879 243.103 301.388 237.069 301.045 232.85C300.882 230.737 300.748 229.078 300.659 227.947C300.614 227.382 300.584 226.95 300.562 226.653C300.54 226.355 300.562 226.206 300.562 226.206C300.562 226.206 300.562 226.348 300.599 226.638C300.636 226.928 300.666 227.382 300.718 227.918C300.815 229.049 300.956 230.693 301.142 232.798C301.507 237.024 302.02 243.073 302.63 250.364V250.439H302.556L272.707 253.005H272.625V252.916C271.881 244.189 271.211 235.945 270.616 228.751V228.669H270.72L292.296 226.861L298.389 226.363L299.996 226.236H300.406L300.562 226.221Z" fill="#263238"/>
<path d="M273.629 251.331L301.38 248.958L299.617 227.836L271.866 230.209L273.629 251.331Z" fill="#455A64"/>
<g opacity="0.3">
<path d="M273.629 251.331L282.222 237.374L288.911 245.074L292.623 240.335L301.38 248.958L273.629 251.331Z" fill="black"/>
</g>
<g opacity="0.3">
<path d="M290.644 235.008C290.692 235.591 290.509 236.169 290.135 236.619C289.761 237.068 289.225 237.353 288.643 237.411C288.202 237.455 287.758 237.367 287.367 237.158C286.976 236.949 286.656 236.629 286.449 236.237C286.241 235.846 286.154 235.401 286.2 234.961C286.245 234.52 286.421 234.103 286.705 233.762C286.988 233.421 287.367 233.173 287.792 233.048C288.217 232.924 288.67 232.929 289.093 233.062C289.515 233.196 289.889 233.452 290.165 233.799C290.441 234.145 290.608 234.566 290.644 235.008Z" fill="black"/>
</g>
<path d="M288.278 233.52C287.971 233.518 287.666 233.456 287.383 233.336C287.099 233.216 286.842 233.042 286.626 232.823C286.409 232.604 286.238 232.345 286.122 232.06C286.006 231.774 285.948 231.469 285.95 231.162V226.162H286.842V231.162C286.828 231.358 286.855 231.556 286.92 231.742C286.986 231.928 287.089 232.099 287.223 232.243C287.358 232.387 287.521 232.503 287.701 232.581C287.882 232.66 288.077 232.701 288.275 232.701C288.472 232.701 288.667 232.66 288.848 232.581C289.029 232.503 289.191 232.387 289.326 232.243C289.46 232.099 289.563 231.928 289.629 231.742C289.695 231.556 289.721 231.358 289.707 231.162V224.376C289.727 223.991 289.668 223.606 289.534 223.245C289.4 222.883 289.194 222.553 288.929 222.273C288.663 221.994 288.344 221.771 287.99 221.619C287.635 221.467 287.254 221.389 286.868 221.389C286.483 221.389 286.102 221.467 285.747 221.619C285.393 221.771 285.074 221.994 284.808 222.273C284.543 222.553 284.337 222.883 284.203 223.245C284.069 223.606 284.01 223.991 284.03 224.376V225.277H283.13V224.376C283.13 223.39 283.522 222.443 284.219 221.746C284.917 221.048 285.863 220.656 286.85 220.656C287.836 220.656 288.783 221.048 289.48 221.746C290.178 222.443 290.57 223.39 290.57 224.376V231.162C290.574 231.777 290.336 232.369 289.907 232.81C289.478 233.251 288.893 233.506 288.278 233.52Z" fill="#CCB183"/>
<path d="M288.278 233.52C288.278 233.52 288.435 233.52 288.717 233.46C289.141 233.373 289.531 233.167 289.841 232.865C290.092 232.629 290.289 232.341 290.418 232.021C290.546 231.701 290.603 231.357 290.585 231.013C290.585 230.194 290.585 229.264 290.585 228.238C290.585 227.211 290.585 226.065 290.585 224.838C290.622 224.21 290.529 223.582 290.309 222.992C290.06 222.368 289.646 221.823 289.112 221.415C288.534 220.974 287.838 220.716 287.112 220.675C286.387 220.634 285.665 220.811 285.042 221.184C284.377 221.586 283.856 222.187 283.554 222.903C283.398 223.267 283.3 223.654 283.264 224.049C283.264 224.443 283.264 224.867 283.264 225.276L283.189 225.202H284.09L284.008 225.276C283.992 224.797 284.009 224.317 284.06 223.841C284.15 223.349 284.362 222.889 284.677 222.501C284.996 222.108 285.411 221.805 285.882 221.622C286.353 221.439 286.864 221.383 287.364 221.458C287.864 221.533 288.336 221.737 288.732 222.051C289.129 222.365 289.437 222.776 289.625 223.245C289.795 223.701 289.869 224.188 289.841 224.674V226.08C289.841 227.947 289.841 229.726 289.804 231.474C289.755 231.692 289.659 231.897 289.522 232.074C289.386 232.252 289.213 232.397 289.015 232.501C288.821 232.6 288.608 232.655 288.391 232.662C288.174 232.67 287.958 232.63 287.758 232.545C287.564 232.461 287.39 232.338 287.246 232.183C287.103 232.028 286.993 231.845 286.924 231.645C286.835 231.255 286.808 230.853 286.842 230.455C286.842 228.922 286.842 227.479 286.842 226.147L286.895 226.206H286.002L286.054 226.154C286.054 227.494 286.054 228.706 286.054 229.778C286.054 230.306 286.054 230.797 286.054 231.266C286.075 231.758 286.25 232.231 286.554 232.618C286.859 233.005 287.277 233.287 287.75 233.423C287.946 233.468 288.145 233.501 288.345 233.52C288.142 233.528 287.939 233.505 287.743 233.453C287.175 233.305 286.684 232.949 286.366 232.456C286.133 232.102 286.001 231.69 285.987 231.266C285.987 230.812 285.987 230.313 285.987 229.778C285.987 228.706 285.987 227.494 285.987 226.154V226.08H286.999V226.14C286.999 227.471 286.999 228.915 286.999 230.447C286.973 230.831 287 231.217 287.081 231.593C287.141 231.774 287.238 231.94 287.366 232.081C287.494 232.222 287.65 232.334 287.825 232.411C288.006 232.487 288.202 232.522 288.399 232.515C288.595 232.507 288.788 232.457 288.963 232.367C289.148 232.276 289.31 232.146 289.439 231.985C289.567 231.824 289.659 231.637 289.707 231.437C289.766 229.748 289.707 227.925 289.707 226.073C289.707 225.611 289.707 225.143 289.707 224.666C289.739 224.2 289.668 223.733 289.499 223.297C289.326 222.849 289.039 222.455 288.666 222.153C288.293 221.851 287.847 221.652 287.373 221.577C286.899 221.501 286.414 221.552 285.965 221.723C285.517 221.895 285.122 222.181 284.819 222.553C284.52 222.922 284.318 223.359 284.231 223.826C284.182 224.293 284.168 224.763 284.186 225.232V225.336H283.145V225.254C283.145 224.838 283.145 224.436 283.145 224.019C283.186 223.607 283.288 223.203 283.45 222.821C283.767 222.079 284.312 221.457 285.005 221.043C285.653 220.657 286.402 220.473 287.155 220.517C287.909 220.561 288.632 220.83 289.231 221.289C289.779 221.711 290.203 222.274 290.458 222.918C290.682 223.524 290.776 224.17 290.734 224.815C290.734 226.043 290.734 227.181 290.734 228.215C290.734 229.249 290.734 230.172 290.734 230.99C290.755 231.341 290.699 231.691 290.57 232.017C290.442 232.344 290.244 232.638 289.99 232.88C289.668 233.18 289.268 233.384 288.836 233.468C288.654 233.511 288.466 233.529 288.278 233.52Z" fill="#263238"/>
<g opacity="0.3">
<path d="M298.248 246.071C298.185 246.993 298.349 247.917 298.725 248.761C299.101 249.605 299.678 250.345 300.406 250.915C302.251 252.313 304.87 252.477 306.477 254.166C307.064 254.861 307.472 255.691 307.664 256.581C307.856 257.471 307.826 258.394 307.578 259.27C307.057 261.016 306.078 262.591 304.743 263.831C303.463 265.103 302.005 266.174 300.644 267.365C298.654 269.041 296.977 271.056 295.689 273.317C295.058 274.521 294.501 275.764 294.022 277.037C293.472 278.401 292.926 279.762 292.385 281.121C291.917 282.282 291.5 283.74 292.333 284.655C292.973 285.202 293.798 285.485 294.64 285.444C298.211 285.697 301.842 285.95 305.338 285.191C305.338 284.581 305.376 283.963 305.39 283.353C305.39 283.353 311.342 262.35 311.342 262.521C311.342 262.692 312.012 249.241 312.012 249.241L298.248 246.071Z" fill="black"/>
</g>
<path d="M315.442 249.985C315.442 249.985 317.22 244.844 311.253 243.132C307.37 242.016 295.354 239.658 297.214 245.364C297.581 246.357 298.225 247.223 299.068 247.861C299.912 248.499 300.921 248.882 301.976 248.965C304.78 249.293 307.146 251.555 307.146 251.555C307.146 251.555 309.036 253.043 308.783 254.813C308.53 256.584 308.746 260.639 303.508 262.484C298.27 264.329 295.785 266.368 294.126 269.76C292.638 272.736 294.498 274.038 294.498 274.038C294.498 274.038 291.284 276.516 291.827 278.874C291.951 279.789 291.751 280.718 291.262 281.501C291.089 281.86 291.002 282.254 291.007 282.652C291.012 283.05 291.109 283.442 291.291 283.796C291.472 284.151 291.734 284.458 292.054 284.695C292.374 284.932 292.745 285.091 293.137 285.161L293.397 285.213C293.397 285.213 309.296 284.633 312.86 280.526C316.424 276.419 316.967 272.677 316.967 272.677C316.967 272.677 319.891 267.699 316.588 264.79C317.8 259.084 316.588 256.19 314.356 254.501L315.442 249.985Z" fill="#FFBF9D"/>
<path d="M294.528 274.068C294.528 274.18 295.815 274.068 297.816 273.629C299.818 273.19 302.556 272.431 305.509 271.553C306.965 271.202 308.368 270.661 309.683 269.946C310.729 269.313 311.699 268.564 312.577 267.714C314.11 266.263 314.579 264.947 314.445 264.917C313.757 265.761 312.997 266.545 312.176 267.26C310.213 268.991 307.838 270.188 305.279 270.735L297.675 273.056C295.696 273.607 294.476 273.942 294.528 274.068Z" fill="#FF9A6C"/>
<path d="M292.236 280.705C292.236 280.794 293.762 281.292 296.358 281.277C299.717 281.13 303.037 280.501 306.216 279.41L308.932 278.554C309.814 278.308 310.662 277.951 311.454 277.49C312.713 276.576 313.785 275.426 314.609 274.105C316.097 271.955 316.521 270.326 316.394 270.303C316.268 270.281 315.702 271.739 314.125 273.741C313.283 274.93 312.244 275.967 311.052 276.806C309.691 277.587 307.793 277.959 305.971 278.584C302.848 279.641 299.616 280.339 296.336 280.667C293.821 280.838 292.296 280.563 292.236 280.705Z" fill="#FF9A6C"/>
<path d="M302.02 248.951C301.938 249.174 304.155 250.193 306.975 251.235C308.173 251.732 309.42 252.101 310.695 252.336C311.714 252.462 312.347 252.284 312.332 252.18C312.317 252.075 311.729 252.001 310.844 251.733C309.958 251.465 308.701 250.945 307.28 250.424C304.453 249.382 302.102 248.727 302.02 248.951Z" fill="#FF9A6C"/>
<path d="M275.482 293.62V298.248H274.581V291.85H275.831L276.858 295.696V291.85H277.743V298.248H276.724L275.482 293.62Z" fill="white"/>
<path d="M278.406 292.824C278.394 292.691 278.41 292.556 278.453 292.429C278.496 292.302 278.565 292.185 278.656 292.086C278.746 291.987 278.857 291.908 278.979 291.854C279.102 291.8 279.235 291.772 279.369 291.772C279.503 291.772 279.636 291.8 279.759 291.854C279.881 291.908 279.992 291.987 280.082 292.086C280.173 292.185 280.242 292.302 280.285 292.429C280.328 292.556 280.344 292.691 280.333 292.824V294.245C280.344 294.379 280.328 294.514 280.285 294.641C280.242 294.768 280.173 294.884 280.082 294.983C279.992 295.082 279.881 295.161 279.759 295.215C279.636 295.269 279.503 295.297 279.369 295.297C279.235 295.297 279.102 295.269 278.979 295.215C278.857 295.161 278.746 295.082 278.656 294.983C278.565 294.884 278.496 294.768 278.453 294.641C278.41 294.514 278.394 294.379 278.406 294.245V292.824ZM280.333 295.644V296.276H278.406V295.644H280.333ZM279.045 294.282C279.045 294.58 279.164 294.677 279.373 294.677C279.581 294.677 279.7 294.58 279.7 294.282V292.794C279.7 292.504 279.574 292.4 279.373 292.4C279.172 292.4 279.045 292.504 279.045 292.794V294.282Z" fill="white"/>
<path d="M297.958 298.248C297.958 298.36 294.238 298.441 289.603 298.441C284.968 298.441 281.255 298.36 281.255 298.248C281.255 298.136 284.975 298.055 289.603 298.055C294.23 298.055 297.958 298.174 297.958 298.248Z" fill="white"/>
</g>
<defs>
<clipPath id="clip0_774_4344">
<rect width="348" height="348" fill="white"/>
</clipPath>
</defs>
</svg>
