<svg width="120" height="120" viewBox="0 0 120 120" fill="none" xmlns="http://www.w3.org/2000/svg">
<path d="M0 16C0 7.16344 7.16344 0 16 0H104C112.837 0 120 7.16344 120 16V104C120 112.837 112.837 120 104 120H16C7.16344 120 0 112.837 0 104V16Z" fill="#FFDDA4"/>
<path d="M18 73.8049V46H24.9998L34.7218 62.5274H34.7996V46H41.7995V73.8049H34.7996L25.0776 57.2775H24.9998V73.8049H18Z" fill="black"/>
<path d="M55.3607 74.4271C48.7109 74.4271 44.7054 70.0328 44.7054 63.8496C44.7054 57.6664 48.7109 53.2721 55.3607 53.2721C61.9717 53.2721 65.9772 57.6664 65.9772 63.8496C65.9772 70.0328 61.9717 74.4271 55.3607 74.4271ZM55.3607 69.7606C58.0829 69.7606 59.7551 67.6995 59.7551 63.8496C59.7551 59.9997 58.0829 57.9386 55.3607 57.9386C52.5997 57.9386 50.9275 59.9997 50.9275 63.8496C50.9275 67.6995 52.5997 69.7606 55.3607 69.7606Z" fill="black"/>
<path d="M79.0955 58.5608H75.6345V66.8051C75.6345 69.0606 76.4511 69.0606 79.0955 69.0606V73.7271C77.9677 73.9605 76.9955 74.1549 75.2456 74.1549C70.6957 74.1549 69.4124 71.7439 69.4124 67.2717V58.5608H66.6513V53.8943H69.4124V48.3333H75.6345V53.8943H79.0955V58.5608Z" fill="black"/>
<path d="M85.3838 46.5833V50.4721H96.5058V46.5833H85.3838ZM90.9448 74.4271C84.2949 74.4271 80.2895 70.0328 80.2895 63.8496C80.2895 57.6664 84.2949 53.2721 90.9448 53.2721C97.5557 53.2721 101.561 57.6664 101.561 63.8496C101.561 70.0328 97.5557 74.4271 90.9448 74.4271ZM90.9448 69.7606C93.6669 69.7606 95.3391 67.6995 95.3391 63.8496C95.3391 59.9997 93.6669 57.9386 90.9448 57.9386C88.1837 57.9386 86.5115 59.9997 86.5115 63.8496C86.5115 67.6995 88.1837 69.7606 90.9448 69.7606Z" fill="black"/>
</svg>
