<svg width="120" height="120" viewBox="0 0 120 120" fill="none" xmlns="http://www.w3.org/2000/svg">
<rect width="120" height="120" rx="24" fill="#FFDDA4"/>
<path d="M17.2182 74.9999C16.5454 74.9999 16 74.4474 16 73.7658V46.2341C16 45.5525 16.5454 45 17.2182 45H22.7586C23.1903 45 23.5897 45.2314 23.8086 45.6084L33.7947 62.8058C33.8042 62.8221 33.8215 62.8321 33.8402 62.8321C33.8693 62.8321 33.8929 62.8082 33.8929 62.7787V46.2341C33.8929 45.5525 34.4383 45 35.1111 45H40.13C40.8028 45 41.3482 45.5525 41.3482 46.2341V73.7658C41.3482 74.4474 40.8028 74.9999 40.13 74.9999H34.5896C34.1579 74.9999 33.7585 74.7684 33.5396 74.3915L23.5535 57.1941C23.544 57.1778 23.5267 57.1678 23.5081 57.1678C23.479 57.1678 23.4554 57.1917 23.4554 57.2212V73.7658C23.4554 74.4474 22.91 74.9999 22.2372 74.9999H17.2182Z" fill="black"/>
<path fill-rule="evenodd" clip-rule="evenodd" d="M64.4939 55.5682V72.2575C64.4939 73.7721 63.339 74.9999 61.9142 74.9999H45.1461C43.7214 74.9999 42.5664 73.7721 42.5664 72.2575V53.0611C42.5664 51.5466 43.7214 50.3188 45.1461 50.3188H59.5558C60.24 50.3188 60.8962 50.6077 61.38 51.122L63.7384 53.6291C64.2222 54.1434 64.4939 54.8409 64.4939 55.5682ZM46.436 69.5152V64.0305C46.436 63.2732 47.0135 62.6593 47.7258 62.6593H59.3345C60.0469 62.6593 60.6244 63.2732 60.6244 64.0305V69.5152C60.6244 70.2725 60.0469 70.8864 59.3345 70.8864H47.7258C47.0135 70.8864 46.436 70.2725 46.436 69.5152Z" fill="black"/>
<path d="M82.0725 56.9322C82.0725 57.6138 81.5271 58.1663 80.8543 58.1663H78.372C77.6992 58.1663 77.1538 58.7188 77.1538 59.4003V67.0613C77.1538 69.1259 78.5625 69.6395 80.7093 69.7479C81.3813 69.7818 81.9275 70.3261 81.9275 71.0077V73.8037C81.9275 74.3889 81.5209 74.8928 80.9449 74.9379C79.7443 75.0318 78.1661 74.9914 76.7396 74.9914C71.8936 74.9914 70.5268 72.39 70.5268 67.5648V59.4003C70.5268 58.7188 69.9814 58.1663 69.3086 58.1663H66.9303C66.2575 58.1663 65.7121 57.6138 65.7121 56.9322V54.3654C65.7121 53.6838 66.2575 53.1313 66.9303 53.1313H69.3086C69.9814 53.1313 70.5268 52.5788 70.5268 51.8973V48.3654C70.5268 47.6838 71.0722 47.1313 71.745 47.1313H75.9356C76.6084 47.1313 77.1538 47.6838 77.1538 48.3654V51.8973C77.1538 52.5788 77.6992 53.1313 78.372 53.1313H80.8543C81.5271 53.1313 82.0725 53.6838 82.0725 54.3654V56.9322Z" fill="black"/>
<path d="M88.1634 45.9996C87.1543 45.9996 86.3362 46.8283 86.3362 47.8507C86.3362 48.873 87.1543 49.7018 88.1634 49.7018H99.1272C100.136 49.7018 100.955 48.873 100.955 47.8507C100.955 46.8283 100.136 45.9996 99.1272 45.9996H88.1634Z" fill="black"/>
<path fill-rule="evenodd" clip-rule="evenodd" d="M104 72.5318V57.5114C104 56.8568 103.743 56.229 103.286 55.7662L101.059 53.5098C100.602 53.0469 99.9824 52.7869 99.3362 52.7869H85.7271C84.3815 52.7869 83.2907 53.8919 83.2907 55.255V72.5318C83.2907 73.8949 84.3815 74.9999 85.7271 74.9999H101.564C102.909 74.9999 104 73.8949 104 72.5318ZM86.9452 57.7231V62.6593C86.9452 63.3409 87.4907 63.8934 88.1634 63.8934H99.1272C99.8 63.8934 100.345 63.3409 100.345 62.6593V58.8513C100.345 58.524 100.217 58.2101 99.9886 57.9787L99.2317 57.2119C98.7748 56.7491 98.1551 56.4891 97.5089 56.4891H88.1634C87.4907 56.4891 86.9452 57.0416 86.9452 57.7231Z" fill="black"/>
</svg>
