<svg width="256" height="282" viewBox="0 0 256 282" fill="none" xmlns="http://www.w3.org/2000/svg">
<path d="M0 268V14.0001C0 6.26807 6.26801 5.91731e-05 14 5.68762e-05L74.1049 3.90207e-05C78.025 3.78562e-05 81.7655 1.64356 84.4169 4.53097L151.759 77.8672C160.391 87.2674 176.071 81.1603 176.071 68.3981V14C176.071 6.26802 182.339 0 190.071 0L242 2.3599e-06C249.732 2.63666e-06 256 6.26801 256 14V268C256 275.732 249.732 282 242 282L182.236 282C178.308 282 174.56 280.35 171.908 277.452L104.639 203.944C96.0154 194.52 80.3111 200.622 80.3111 213.395V268C80.3111 275.732 74.043 282 66.3111 282L14 282C6.26801 282 0 275.732 0 268Z" fill="black"/>
<path d="M156 123.75C85.4856 99.8991 68.9999 53.0829 71.9999 19.2496C43.4999 47.7496 32.1755 156.808 111.5 167.75C169.5 175.75 186.333 232.916 185 262.75C214 227.75 224 146.75 156 123.75Z" fill="url(#paint0_linear_804_5601)"/>
<defs>
<linearGradient id="paint0_linear_804_5601" x1="68.9999" y1="77.2496" x2="181.5" y2="193.75" gradientUnits="userSpaceOnUse">
<stop stop-color="#FFDDA4"/>
<stop offset="1" stop-color="#EFF8B1"/>
</linearGradient>
</defs>
</svg>
