<svg width="258" height="285" viewBox="0 0 258 285" fill="none" xmlns="http://www.w3.org/2000/svg">
<path d="M1 269.751V15.7505C1 8.0185 7.26801 1.75049 15 1.75048L75.1049 1.75047C79.025 1.75047 82.7655 3.39399 85.4169 6.28139L152.759 79.6176C161.391 89.0179 177.071 82.9108 177.071 70.1486V15.7504C177.071 8.01845 183.339 1.75043 191.071 1.75043L243 1.75043C250.732 1.75043 257 8.01844 257 15.7504V269.75C257 277.482 250.732 283.75 243 283.75L183.236 283.751C179.308 283.751 175.56 282.1 172.908 279.202L105.639 205.694C97.0154 196.271 81.3111 202.372 81.3111 215.146V269.751C81.3111 277.483 75.043 283.751 67.3111 283.751L15 283.751C7.26801 283.751 1 277.483 1 269.751Z" fill="white"/>
<path d="M157 125.5C86.4857 101.65 70 54.8333 73 21C44.5 49.5 33.1755 158.559 112.5 169.5C170.5 177.5 187.333 234.667 186 264.5C215 229.5 225 148.5 157 125.5Z" fill="url(#paint0_linear_804_5599)"/>
<path d="M1 269.751V15.7505C1 8.0185 7.26801 1.75049 15 1.75048L75.1049 1.75047C79.025 1.75047 82.7655 3.39399 85.4169 6.28139L152.759 79.6176C161.391 89.0179 177.071 82.9108 177.071 70.1486V15.7504C177.071 8.01845 183.339 1.75043 191.071 1.75043L243 1.75043C250.732 1.75043 257 8.01844 257 15.7504V269.75C257 277.482 250.732 283.75 243 283.75L183.236 283.751C179.308 283.751 175.56 282.1 172.908 279.202L105.639 205.694C97.0154 196.271 81.3111 202.372 81.3111 215.146V269.751C81.3111 277.483 75.043 283.751 67.3111 283.751L15 283.751C7.26801 283.751 1 277.483 1 269.751Z" stroke="black" stroke-width="2"/>
<path d="M157 125.5C86.4857 101.65 70 54.8333 73 21C44.5 49.5 33.1755 158.559 112.5 169.5C170.5 177.5 187.333 234.667 186 264.5C215 229.5 225 148.5 157 125.5Z" stroke="black" stroke-width="2"/>
<defs>
<linearGradient id="paint0_linear_804_5599" x1="70" y1="79" x2="182.5" y2="195.5" gradientUnits="userSpaceOnUse">
<stop stop-color="#FFDDA4"/>
<stop offset="1" stop-color="#EFF8B1"/>
</linearGradient>
</defs>
</svg>
